<svg version="1.1" xmlns="http://www.w3.org/2000/svg" xmlns:xlink="http://www.w3.org/1999/xlink" width="772.4599609375" height="1200"><defs/><g><g transform="translate(-270,-54) scale(1,1)"><rect fill="#C0C0C0" stroke="none" x="415" y="143" width="122.39453125" height="44" opacity="0.2"/></g><g transform="translate(-270,-54) scale(1,1)"><rect fill="#d8d8ff" stroke="none" x="408" y="136" width="122.39453125" height="44"/></g><g transform="translate(-270,-54) scale(1,1)"><path fill="none" stroke="#000000" d="M 408 136 L 530.39453125 136 L 530.39453125 180 L 408 180 L 408 136 Z Z" stroke-miterlimit="10"/></g><g transform="translate(-270,-54) scale(1,1)"><path fill="none" stroke="#000000" d="M 408 161 L 530.39453125 161" stroke-miterlimit="10"/></g><g transform="translate(-270,-54) scale(1,1)"><path fill="none" stroke="#000000" d="M 408 171 L 530.39453125 171" stroke-miterlimit="10"/></g><g transform="translate(-270,-54) scale(1,1)"><g><path fill="none" stroke="none"/><text fill="#000000" stroke="none" font-family="Arial" font-size="13px" font-style="normal" font-weight="bold" text-decoration="none" x="416.81005859375" y="155.5">GInitiallyUnowned</text></g></g><g transform="translate(-270,-54) scale(1,1)"><rect fill="#C0C0C0" stroke="none" x="447" y="71" width="59.5654296875" height="44" opacity="0.2"/></g><g transform="translate(-270,-54) scale(1,1)"><rect fill="#d8d8ff" stroke="none" x="440" y="64" width="59.5654296875" height="44"/></g><g transform="translate(-270,-54) scale(1,1)"><path fill="none" stroke="#000000" d="M 440 64 L 499.5654296875 64 L 499.5654296875 108 L 440 108 L 440 64 Z Z" stroke-miterlimit="10"/></g><g transform="translate(-270,-54) scale(1,1)"><path fill="none" stroke="#000000" d="M 440 89 L 499.5654296875 89" stroke-miterlimit="10"/></g><g transform="translate(-270,-54) scale(1,1)"><path fill="none" stroke="#000000" d="M 440 99 L 499.5654296875 99" stroke-miterlimit="10"/></g><g transform="translate(-270,-54) scale(1,1)"><g><path fill="none" stroke="none"/><text fill="#000000" stroke="none" font-family="Arial" font-size="13px" font-style="normal" font-weight="bold" text-decoration="none" x="445.94091796875" y="83.5">GObject</text></g></g><g transform="translate(-270,-54) scale(1,1)"><rect fill="#C0C0C0" stroke="none" x="439" y="215" width="71.12451171875" height="44" opacity="0.2"/></g><g transform="translate(-270,-54) scale(1,1)"><rect fill="#ebffd8" stroke="none" x="432" y="208" width="71.12451171875" height="44"/></g><g transform="translate(-270,-54) scale(1,1)"><path fill="none" stroke="#000000" d="M 432 208 L 503.12451171875 208 L 503.12451171875 252 L 432 252 L 432 208 Z Z" stroke-miterlimit="10"/></g><g transform="translate(-270,-54) scale(1,1)"><path fill="none" stroke="#000000" d="M 432 233 L 503.12451171875 233" stroke-miterlimit="10"/></g><g transform="translate(-270,-54) scale(1,1)"><path fill="none" stroke="#000000" d="M 432 243 L 503.12451171875 243" stroke-miterlimit="10"/></g><g transform="translate(-270,-54) scale(1,1)"><g><path fill="none" stroke="none"/><text fill="#000000" stroke="none" font-family="Arial" font-size="13px" font-style="normal" font-weight="bold" text-decoration="none" x="438.66455078125" y="227.5">GstObject</text></g></g><g transform="translate(-270,-54) scale(1,1)"><rect fill="#C0C0C0" stroke="none" x="578" y="311" width="54.5126953125" height="44" opacity="0.2"/></g><g transform="translate(-270,-54) scale(1,1)"><rect fill="#ebffd8" stroke="none" x="571" y="304" width="54.5126953125" height="44"/></g><g transform="translate(-270,-54) scale(1,1)"><path fill="none" stroke="#000000" d="M 571 304 L 625.5126953125 304 L 625.5126953125 348 L 571 348 L 571 304 Z Z" stroke-miterlimit="10"/></g><g transform="translate(-270,-54) scale(1,1)"><path fill="none" stroke="#000000" d="M 571 329 L 625.5126953125 329" stroke-miterlimit="10"/></g><g transform="translate(-270,-54) scale(1,1)"><path fill="none" stroke="#000000" d="M 571 339 L 625.5126953125 339" stroke-miterlimit="10"/></g><g transform="translate(-270,-54) scale(1,1)"><g><path fill="none" stroke="none"/><text fill="#000000" stroke="none" font-family="Arial" font-size="13px" font-style="normal" font-weight="bold" text-decoration="none" x="576.5791015625" y="323.5">GstPad</text></g></g><g transform="translate(-270,-54) scale(1,1)"><path fill="none" stroke="#000000" d="M 570 305 L 498 253" stroke-miterlimit="10"/></g><g transform="translate(-270,-54) scale(1,1)"><path fill="#FFFFFF" stroke="none" d="M 519.4066045888901 258.07516304909575 L 498 253 L 509.5480730593403 271.7254374746263"/></g><g transform="translate(-270,-54) scale(1,1)"><path fill="none" stroke="#000000" d="M 519.4066045888901 258.07516304909575 L 498 253 L 509.5480730593403 271.7254374746263 L 519.4066045888901 258.07516304909575" stroke-miterlimit="10"/></g><g transform="translate(-270,-54) scale(1,1)"><path fill="none" stroke="#000000" d="M 468 207 L 468 181" stroke-miterlimit="10"/></g><g transform="translate(-270,-54) scale(1,1)"><path fill="#FFFFFF" stroke="none" d="M 476.419035512032 201.3253497152483 L 468 181 L 459.580964487968 201.3253497152483"/></g><g transform="translate(-270,-54) scale(1,1)"><path fill="none" stroke="#000000" d="M 476.419035512032 201.3253497152483 L 468 181 L 459.580964487968 201.3253497152483 L 476.419035512032 201.3253497152483" stroke-miterlimit="10"/></g><g transform="translate(-270,-54) scale(1,1)"><path fill="none" stroke="#000000" d="M 469 135 L 469 109" stroke-miterlimit="10"/></g><g transform="translate(-270,-54) scale(1,1)"><path fill="#FFFFFF" stroke="none" d="M 477.419035512032 129.3253497152483 L 469 109 L 460.580964487968 129.3253497152483"/></g><g transform="translate(-270,-54) scale(1,1)"><path fill="none" stroke="#000000" d="M 477.419035512032 129.3253497152483 L 469 109 L 460.580964487968 129.3253497152483 L 477.419035512032 129.3253497152483" stroke-miterlimit="10"/></g><g transform="translate(-270,-54) scale(1,1)"><rect fill="#C0C0C0" stroke="none" x="431" y="415" width="81.24267578125" height="44" opacity="0.2"/></g><g transform="translate(-270,-54) scale(1,1)"><rect fill="#ebffd8" stroke="none" x="424" y="408" width="81.24267578125" height="44"/></g><g transform="translate(-270,-54) scale(1,1)"><path fill="none" stroke="#000000" d="M 424 408 L 505.24267578125 408 L 505.24267578125 452 L 424 452 L 424 408 Z Z" stroke-miterlimit="10"/></g><g transform="translate(-270,-54) scale(1,1)"><path fill="none" stroke="#000000" d="M 424 433 L 505.24267578125 433" stroke-miterlimit="10"/></g><g transform="translate(-270,-54) scale(1,1)"><path fill="none" stroke="#000000" d="M 424 443 L 505.24267578125 443" stroke-miterlimit="10"/></g><g transform="translate(-270,-54) scale(1,1)"><g><path fill="none" stroke="none"/><text fill="#000000" stroke="none" font-family="Arial" font-size="13px" font-style="normal" font-weight="bold" text-decoration="none" x="430.66455078125" y="427.5">GstElement</text></g></g><g transform="translate(-270,-54) scale(1,1)"><rect fill="#C0C0C0" stroke="none" x="855" y="215" width="62.4599609375" height="44" opacity="0.2"/></g><g transform="translate(-270,-54) scale(1,1)"><rect fill="#ebffd8" stroke="none" x="848" y="208" width="62.4599609375" height="44"/></g><g transform="translate(-270,-54) scale(1,1)"><path fill="none" stroke="#000000" d="M 848 208 L 910.4599609375 208 L 910.4599609375 252 L 848 252 L 848 208 Z Z" stroke-miterlimit="10"/></g><g transform="translate(-270,-54) scale(1,1)"><path fill="none" stroke="#000000" d="M 848 233 L 910.4599609375 233" stroke-miterlimit="10"/></g><g transform="translate(-270,-54) scale(1,1)"><path fill="none" stroke="#000000" d="M 848 243 L 910.4599609375 243" stroke-miterlimit="10"/></g><g transform="translate(-270,-54) scale(1,1)"><g><path fill="none" stroke="none"/><text fill="#000000" stroke="none" font-family="Arial" font-size="13px" font-style="normal" font-weight="bold" text-decoration="none" x="853.944091796875" y="227.5">GstCaps</text></g></g><g transform="translate(-270,-54) scale(1,1)"><path fill="none" stroke="#000000" d="M 448 408 L 448 252" stroke-miterlimit="10"/></g><g transform="translate(-270,-54) scale(1,1)"><path fill="#FFFFFF" stroke="none" d="M 456.419035512032 272.3253497152483 L 448 252 L 439.580964487968 272.3253497152483"/></g><g transform="translate(-270,-54) scale(1,1)"><path fill="none" stroke="#000000" d="M 456.419035512032 272.3253497152483 L 448 252 L 439.580964487968 272.3253497152483 L 456.419035512032 272.3253497152483" stroke-miterlimit="10"/></g><g transform="translate(-270,-54) scale(1,1)"><rect fill="#C0C0C0" stroke="none" x="839" y="143" width="97.1181640625" height="44" opacity="0.2"/></g><g transform="translate(-270,-54) scale(1,1)"><rect fill="#ebffd8" stroke="none" x="832" y="136" width="97.1181640625" height="44"/></g><g transform="translate(-270,-54) scale(1,1)"><path fill="none" stroke="#000000" d="M 832 136 L 929.1181640625 136 L 929.1181640625 180 L 832 180 L 832 136 Z Z" stroke-miterlimit="10"/></g><g transform="translate(-270,-54) scale(1,1)"><path fill="none" stroke="#000000" d="M 832 161 L 929.1181640625 161" stroke-miterlimit="10"/></g><g transform="translate(-270,-54) scale(1,1)"><path fill="none" stroke="#000000" d="M 832 171 L 929.1181640625 171" stroke-miterlimit="10"/></g><g transform="translate(-270,-54) scale(1,1)"><g><path fill="none" stroke="none"/><text fill="#000000" stroke="none" font-family="Arial" font-size="13px" font-style="normal" font-weight="bold" text-decoration="none" x="839.74365234375" y="155.5">GstMiniObject</text></g></g><g transform="translate(-270,-54) scale(1,1)"><path fill="none" stroke="#000000" d="M 879 207 L 880 181" stroke-miterlimit="10"/></g><g transform="translate(-270,-54) scale(1,1)"><path fill="#FFFFFF" stroke="none" d="M 887.63164866766 201.63390265105957 L 880 181 L 870.8060180376284 200.98676301144297"/></g><g transform="translate(-270,-54) scale(1,1)"><path fill="none" stroke="#000000" d="M 887.63164866766 201.63390265105957 L 880 181 L 870.8060180376284 200.98676301144297 L 887.63164866766 201.63390265105957" stroke-miterlimit="10"/></g><g transform="translate(-270,-54) scale(1,1)"><rect fill="#C0C0C0" stroke="none" x="855" y="71" width="60.99365234375" height="44" opacity="0.2"/></g><g transform="translate(-270,-54) scale(1,1)"><rect fill="#d8d8ff" stroke="none" x="848" y="64" width="60.99365234375" height="44"/></g><g transform="translate(-270,-54) scale(1,1)"><path fill="none" stroke="#000000" d="M 848 64 L 908.99365234375 64 L 908.99365234375 108 L 848 108 L 848 64 Z Z" stroke-miterlimit="10"/></g><g transform="translate(-270,-54) scale(1,1)"><path fill="none" stroke="#000000" d="M 848 89 L 908.99365234375 89" stroke-miterlimit="10"/></g><g transform="translate(-270,-54) scale(1,1)"><path fill="none" stroke="#000000" d="M 848 99 L 908.99365234375 99" stroke-miterlimit="10"/></g><g transform="translate(-270,-54) scale(1,1)"><g><path fill="none" stroke="none"/><text fill="#000000" stroke="none" font-family="Arial" font-size="13px" font-style="normal" font-weight="bold" text-decoration="none" x="859.34912109375" y="83.5">GType</text></g></g><g transform="translate(-270,-54) scale(1,1)"><path fill="none" stroke="#000000" d="M 879 135 L 879 109" stroke-miterlimit="10"/></g><g transform="translate(-270,-54) scale(1,1)"><path fill="#FFFFFF" stroke="none" d="M 887.419035512032 129.3253497152483 L 879 109 L 870.580964487968 129.3253497152483"/></g><g transform="translate(-270,-54) scale(1,1)"><path fill="none" stroke="#000000" d="M 887.419035512032 129.3253497152483 L 879 109 L 870.580964487968 129.3253497152483 L 887.419035512032 129.3253497152483" stroke-miterlimit="10"/></g><g transform="translate(-270,-54) scale(1,1)"><rect fill="#C0C0C0" stroke="none" x="899.919921875" y="279" width="85.55908203125" height="24" opacity="0.2"/></g><g transform="translate(-270,-54) scale(1,1)"><rect fill="#ffffff" stroke="none" x="892.919921875" y="272" width="85.55908203125" height="24"/></g><g transform="translate(-270,-54) scale(1,1)"><path fill="none" stroke="#000000" d="M 892.919921875 272 L 978.47900390625 272 L 978.47900390625 296 L 892.919921875 296 L 892.919921875 272 Z Z" stroke-miterlimit="10"/></g><g transform="translate(-270,-54) scale(1,1)"><rect fill="#ffffff" stroke="none" x="892.919921875" y="272" width="85.55908203125" height="24"/></g><g transform="translate(-270,-54) scale(1,1)"><path fill="none" stroke="#000000" d="M 892.919921875 272 L 978.47900390625 272 L 978.47900390625 296 L 892.919921875 296 L 892.919921875 272 Z Z" stroke-miterlimit="10"/></g><g transform="translate(-270,-54) scale(1,1)"><g><path fill="none" stroke="none"/><text fill="#000000" stroke="none" font-family="Arial" font-size="13px" font-style="normal" font-weight="bold" text-decoration="none" x="900.654052734375" y="291.5">other-tensor</text><path fill="none" stroke="#000000" d="M 973.97900390625 291.5 L 897.419921875 291.5" stroke-miterlimit="10"/></g></g><g transform="translate(-270,-54) scale(1,1)"><rect fill="#C0C0C0" stroke="none" x="892.68994140625" y="311" width="92.7890625" height="24" opacity="0.2"/></g><g transform="translate(-270,-54) scale(1,1)"><rect fill="#ffffff" stroke="none" x="885.68994140625" y="304" width="92.7890625" height="24"/></g><g transform="translate(-270,-54) scale(1,1)"><path fill="none" stroke="#000000" d="M 885.68994140625 304 L 978.47900390625 304 L 978.47900390625 328 L 885.68994140625 328 L 885.68994140625 304 Z Z" stroke-miterlimit="10"/></g><g transform="translate(-270,-54) scale(1,1)"><rect fill="#ffffff" stroke="none" x="885.68994140625" y="304" width="92.7890625" height="24"/></g><g transform="translate(-270,-54) scale(1,1)"><path fill="none" stroke="#000000" d="M 885.68994140625 304 L 978.47900390625 304 L 978.47900390625 328 L 885.68994140625 328 L 885.68994140625 304 Z Z" stroke-miterlimit="10"/></g><g transform="translate(-270,-54) scale(1,1)"><g><path fill="none" stroke="none"/><text fill="#000000" stroke="none" font-family="Arial" font-size="13px" font-style="normal" font-weight="bold" text-decoration="none" x="893.7890625" y="323.5">other-tensors</text><path fill="none" stroke="#000000" d="M 973.97900390625 323.5 L 890.18994140625 323.5" stroke-miterlimit="10"/></g></g><g transform="translate(-270,-54) scale(1,1)"><rect fill="#C0C0C0" stroke="none" x="871" y="343" width="114.47900390625" height="24" opacity="0.2"/></g><g transform="translate(-270,-54) scale(1,1)"><rect fill="#ffffff" stroke="none" x="864" y="336" width="114.47900390625" height="24"/></g><g transform="translate(-270,-54) scale(1,1)"><path fill="none" stroke="#000000" d="M 864 336 L 978.47900390625 336 L 978.47900390625 360 L 864 360 L 864 336 Z Z" stroke-miterlimit="10"/></g><g transform="translate(-270,-54) scale(1,1)"><rect fill="#ffffff" stroke="none" x="864" y="336" width="114.47900390625" height="24"/></g><g transform="translate(-270,-54) scale(1,1)"><path fill="none" stroke="#000000" d="M 864 336 L 978.47900390625 336 L 978.47900390625 360 L 864 360 L 864 336 Z Z" stroke-miterlimit="10"/></g><g transform="translate(-270,-54) scale(1,1)"><g><path fill="none" stroke="none"/><text fill="#000000" stroke="none" font-family="Arial" font-size="13px" font-style="normal" font-weight="bold" text-decoration="none" x="872.464111328125" y="355.5">other-tensorsave</text><path fill="none" stroke="#000000" d="M 973.97900390625 355.5 L 868.5 355.5" stroke-miterlimit="10"/></g></g><g transform="translate(-270,-54) scale(1,1)"><rect fill="#C0C0C0" stroke="none" x="951" y="143" width="88.4599609375" height="44" opacity="0.2"/></g><g transform="translate(-270,-54) scale(1,1)"><rect fill="#ebffd8" stroke="none" x="944" y="136" width="88.4599609375" height="44"/></g><g transform="translate(-270,-54) scale(1,1)"><path fill="none" stroke="#000000" d="M 944 136 L 1032.4599609375 136 L 1032.4599609375 180 L 944 180 L 944 136 Z Z" stroke-miterlimit="10"/></g><g transform="translate(-270,-54) scale(1,1)"><path fill="none" stroke="#000000" d="M 944 161 L 1032.4599609375 161" stroke-miterlimit="10"/></g><g transform="translate(-270,-54) scale(1,1)"><path fill="none" stroke="#000000" d="M 944 171 L 1032.4599609375 171" stroke-miterlimit="10"/></g><g transform="translate(-270,-54) scale(1,1)"><g><path fill="none" stroke="none"/><text fill="#000000" stroke="none" font-family="Arial" font-size="13px" font-style="normal" font-weight="bold" text-decoration="none" x="951.746826171875" y="155.5">GstStructure</text></g></g><g transform="translate(-270,-54) scale(1,1)"><path fill="none" stroke="#000000" d="M 992 136 L 992 88 L 909 88" stroke-miterlimit="10"/></g><g transform="translate(-270,-54) scale(1,1)"><path fill="#FFFFFF" stroke="none" d="M 929.3253497152483 79.58096448796803 L 909 88 L 929.3253497152483 96.41903551203197"/></g><g transform="translate(-270,-54) scale(1,1)"><path fill="none" stroke="#000000" d="M 929.3253497152483 79.58096448796803 L 909 88 L 929.3253497152483 96.41903551203197 L 929.3253497152483 79.58096448796803" stroke-miterlimit="10"/></g><g transform="translate(-270,-54) scale(1,1)"><path fill="none" stroke="#000000" d="M 987 180 L 987 240 L 910 240" stroke-miterlimit="10"/></g><g transform="translate(-270,-54) scale(1,1)"><path fill="#FFFFFF" stroke="none" d="M 920.1626748576241 235.790482243984 L 910 240 L 920.1626748576241 244.209517756016 L 932 240"/></g><g transform="translate(-270,-54) scale(1,1)"><path fill="none" stroke="#000000" d="M 920.1626748576241 235.790482243984 L 910 240 L 920.1626748576241 244.209517756016 L 932 240 L 920.1626748576241 235.790482243984" stroke-miterlimit="10"/></g><g transform="translate(-270,-54) scale(1,1)"><g><path fill="none" stroke="none"/><text fill="#000000" stroke="none" font-family="Arial" font-size="13px" font-style="normal" font-weight="normal" text-decoration="none" x="963.74365234375" y="207.5">0..*</text></g></g><g transform="translate(-270,-54) scale(1,1)"><path fill="none" stroke="#000000" d="M 978 284 L 1000 284 L 1000 180" stroke-miterlimit="10" stroke-dasharray="3"/></g><g transform="translate(-270,-54) scale(1,1)"><path fill="none" stroke="#000000" d="M 978 316 L 1000 316 L 1000 180" stroke-miterlimit="10" stroke-dasharray="3"/></g><g transform="translate(-270,-54) scale(1,1)"><path fill="none" stroke="#000000" d="M 978 348 L 1000 348 L 1000 180" stroke-miterlimit="10" stroke-dasharray="3"/></g><g transform="translate(-270,-54) scale(1,1)"><path fill="none" stroke="#000000" d="M 603 348 L 603 368 L 672 368 L 672 326 L 626 326" stroke-miterlimit="10"/></g><g transform="translate(-270,-54) scale(1,1)"><g><path fill="none" stroke="none"/><text fill="#000000" stroke="none" font-family="Arial" font-size="13px" font-style="normal" font-weight="normal" text-decoration="none" x="678.5" y="364.5">+peer</text></g></g><g transform="translate(-270,-54) scale(1,1)"><path fill="none" stroke="#000000" d="M 627 316 L 847 241" stroke-miterlimit="10"/></g><g transform="translate(-270,-54) scale(1,1)"><path fill="none" stroke="#000000" d="M 838.7392263365405 248.26358165653096 L 847 241 L 836.0226230796852 240.29487876975574" stroke-miterlimit="10"/></g><g transform="translate(-270,-54) scale(1,1)"><path fill="none" stroke="#000000" d="M 570 348 L 494 407" stroke-miterlimit="10"/></g><g transform="translate(-270,-54) scale(1,1)"><path fill="#000000" stroke="none" d="M 499.4462503210447 397.4428896919351 L 494 407 L 504.60897804143065 404.0931830266696 L 511.3780539534566 393.5091423256061"/></g><g transform="translate(-270,-54) scale(1,1)"><path fill="none" stroke="#000000" d="M 499.4462503210447 397.4428896919351 L 494 407 L 504.60897804143065 404.0931830266696 L 511.3780539534566 393.5091423256061 L 499.4462503210447 397.4428896919351" stroke-miterlimit="10"/></g><g transform="translate(-270,-54) scale(1,1)"><g><path fill="none" stroke="none"/><text fill="#000000" stroke="none" font-family="Arial" font-size="13px" font-style="normal" font-weight="normal" text-decoration="none" x="489.5" y="377.5">+sink</text></g></g><g transform="translate(-270,-54) scale(1,1)"><g><path fill="none" stroke="none"/><text fill="#000000" stroke="none" font-family="Arial" font-size="13px" font-style="normal" font-weight="normal" text-decoration="none" x="551.74365234375" y="380.5">0..*</text></g></g><g transform="translate(-270,-54) scale(1,1)"><path fill="none" stroke="#000000" d="M 571 328 L 472 328 L 472 408" stroke-miterlimit="10"/></g><g transform="translate(-270,-54) scale(1,1)"><path fill="#000000" stroke="none" d="M 467.790482243984 397.83732514237585 L 472 408 L 476.209517756016 397.83732514237585 L 472 386"/></g><g transform="translate(-270,-54) scale(1,1)"><path fill="none" stroke="#000000" d="M 467.790482243984 397.83732514237585 L 472 408 L 476.209517756016 397.83732514237585 L 472 386 L 467.790482243984 397.83732514237585" stroke-miterlimit="10"/></g><g transform="translate(-270,-54) scale(1,1)"><g><path fill="none" stroke="none"/><text fill="#000000" stroke="none" font-family="Arial" font-size="13px" font-style="normal" font-weight="normal" text-decoration="none" x="486.5" y="324.5">+src</text></g></g><g transform="translate(-270,-54) scale(1,1)"><g><path fill="none" stroke="none"/><text fill="#000000" stroke="none" font-family="Arial" font-size="13px" font-style="normal" font-weight="normal" text-decoration="none" x="535.74365234375" y="349.5">0..*</text></g></g><g transform="translate(-270,-54) scale(1,1)"><rect fill="#C0C0C0" stroke="none" x="550" y="215" width="110.61962890625" height="44" opacity="0.2"/></g><g transform="translate(-270,-54) scale(1,1)"><rect fill="#ebffd8" stroke="none" x="543" y="208" width="110.61962890625" height="44"/></g><g transform="translate(-270,-54) scale(1,1)"><path fill="none" stroke="#000000" d="M 543 208 L 653.61962890625 208 L 653.61962890625 252 L 543 252 L 543 208 Z Z" stroke-miterlimit="10"/></g><g transform="translate(-270,-54) scale(1,1)"><path fill="none" stroke="#000000" d="M 543 233 L 653.61962890625 233" stroke-miterlimit="10"/></g><g transform="translate(-270,-54) scale(1,1)"><path fill="none" stroke="#000000" d="M 543 243 L 653.61962890625 243" stroke-miterlimit="10"/></g><g transform="translate(-270,-54) scale(1,1)"><g><path fill="none" stroke="none"/><text fill="#000000" stroke="none" font-family="Arial" font-size="13px" font-style="normal" font-weight="bold" text-decoration="none" x="550.258056640625" y="227.5">GstPadTemplate</text></g></g><g transform="translate(-270,-54) scale(1,1)"><path fill="none" stroke="#000000" d="M 542 230 L 504 230" stroke-miterlimit="10"/></g><g transform="translate(-270,-54) scale(1,1)"><path fill="#FFFFFF" stroke="none" d="M 524.3253497152483 221.58096448796803 L 504 230 L 524.3253497152483 238.41903551203197"/></g><g transform="translate(-270,-54) scale(1,1)"><path fill="none" stroke="#000000" d="M 524.3253497152483 221.58096448796803 L 504 230 L 524.3253497152483 238.41903551203197 L 524.3253497152483 221.58096448796803" stroke-miterlimit="10"/></g><g transform="translate(-270,-54) scale(1,1)"><path fill="none" stroke="#000000" d="M 847 230 L 655 230" stroke-miterlimit="10"/></g><g transform="translate(-270,-54) scale(1,1)"><path fill="#FFFFFF" stroke="none" d="M 665.1626748576241 225.790482243984 L 655 230 L 665.1626748576241 234.209517756016 L 677 230"/></g><g transform="translate(-270,-54) scale(1,1)"><path fill="none" stroke="#000000" d="M 665.1626748576241 225.790482243984 L 655 230 L 665.1626748576241 234.209517756016 L 677 230 L 665.1626748576241 225.790482243984" stroke-miterlimit="10"/></g><g transform="translate(-270,-54) scale(1,1)"><g><path fill="none" stroke="none"/><text fill="#000000" stroke="none" font-family="Arial" font-size="13px" font-style="normal" font-weight="normal" text-decoration="none" x="733.5" y="222.5">+caps</text></g></g><g transform="translate(-270,-54) scale(1,1)"><g><path fill="none" stroke="none"/><text fill="#000000" stroke="none" font-family="Arial" font-size="13px" font-style="normal" font-weight="normal" text-decoration="none" x="814.74365234375" y="223.5">0..*</text></g></g><g transform="translate(-270,-54) scale(1,1)"><path fill="none" stroke="#000000" d="M 598 253 L 598 303" stroke-miterlimit="10"/></g><g transform="translate(-270,-54) scale(1,1)"><path fill="#FFFFFF" stroke="none" d="M 593.790482243984 292.83732514237585 L 598 303 L 602.209517756016 292.83732514237585 L 598 281"/></g><g transform="translate(-270,-54) scale(1,1)"><path fill="none" stroke="#000000" d="M 593.790482243984 292.83732514237585 L 598 303 L 602.209517756016 292.83732514237585 L 598 281 L 593.790482243984 292.83732514237585" stroke-miterlimit="10"/></g><g transform="translate(-270,-54) scale(1,1)"><g><path fill="none" stroke="none"/><text fill="#000000" stroke="none" font-family="Arial" font-size="13px" font-style="normal" font-weight="normal" text-decoration="none" x="607.5" y="276.5">+padtemplate</text></g></g><g transform="translate(-270,-54) scale(1,1)"><g><path fill="none" stroke="none"/><text fill="#000000" stroke="none" font-family="Arial" font-size="13px" font-style="normal" font-weight="normal" text-decoration="none" x="581.5" y="280.5">1</text></g></g><g transform="translate(-270,-54) scale(1,1)"><rect fill="#C0C0C0" stroke="none" x="431" y="543" width="89.20263671875" height="44" opacity="0.2"/></g><g transform="translate(-270,-54) scale(1,1)"><rect fill="#ebffd8" stroke="none" x="424" y="536" width="89.20263671875" height="44"/></g><g transform="translate(-270,-54) scale(1,1)"><path fill="none" stroke="#000000" d="M 424 536 L 513.20263671875 536 L 513.20263671875 580 L 424 580 L 424 536 Z Z" stroke-miterlimit="10"/></g><g transform="translate(-270,-54) scale(1,1)"><path fill="none" stroke="#000000" d="M 424 561 L 513.20263671875 561" stroke-miterlimit="10"/></g><g transform="translate(-270,-54) scale(1,1)"><path fill="none" stroke="#000000" d="M 424 571 L 513.20263671875 571" stroke-miterlimit="10"/></g><g transform="translate(-270,-54) scale(1,1)"><g><path fill="none" stroke="none"/><text fill="#000000" stroke="none" font-family="Arial" font-size="13px" font-style="normal" font-weight="bold" text-decoration="none" x="431.029541015625" y="555.5">GstBaseSink</text></g></g><g transform="translate(-270,-54) scale(1,1)"><rect fill="#C0C0C0" stroke="none" x="431" y="671" width="86.32080078125" height="44" opacity="0.2"/></g><g transform="translate(-270,-54) scale(1,1)"><rect fill="#ebffd8" stroke="none" x="424" y="664" width="86.32080078125" height="44"/></g><g transform="translate(-270,-54) scale(1,1)"><path fill="none" stroke="#000000" d="M 424 664 L 510.32080078125 664 L 510.32080078125 708 L 424 708 L 424 664 Z Z" stroke-miterlimit="10"/></g><g transform="translate(-270,-54) scale(1,1)"><path fill="none" stroke="#000000" d="M 424 689 L 510.32080078125 689" stroke-miterlimit="10"/></g><g transform="translate(-270,-54) scale(1,1)"><path fill="none" stroke="#000000" d="M 424 699 L 510.32080078125 699" stroke-miterlimit="10"/></g><g transform="translate(-270,-54) scale(1,1)"><g><path fill="none" stroke="none"/><text fill="#000000" stroke="none" font-family="Arial" font-size="13px" font-style="normal" font-weight="bold" text-decoration="none" x="432.483154296875" y="683.5">GstBaseSrc</text></g></g><g transform="translate(-270,-54) scale(1,1)"><rect fill="#C0C0C0" stroke="none" x="327" y="807" width="118.0908203125" height="44" opacity="0.2"/></g><g transform="translate(-270,-54) scale(1,1)"><rect fill="#ebffd8" stroke="none" x="320" y="800" width="118.0908203125" height="44"/></g><g transform="translate(-270,-54) scale(1,1)"><path fill="none" stroke="#000000" d="M 320 800 L 438.0908203125 800 L 438.0908203125 844 L 320 844 L 320 800 Z Z" stroke-miterlimit="10"/></g><g transform="translate(-270,-54) scale(1,1)"><path fill="none" stroke="#000000" d="M 320 825 L 438.0908203125 825" stroke-miterlimit="10"/></g><g transform="translate(-270,-54) scale(1,1)"><path fill="none" stroke="#000000" d="M 320 835 L 438.0908203125 835" stroke-miterlimit="10"/></g><g transform="translate(-270,-54) scale(1,1)"><g><path fill="none" stroke="none"/><text fill="#000000" stroke="none" font-family="Arial" font-size="13px" font-style="normal" font-weight="bold" text-decoration="none" x="327.994384765625" y="819.5">GstBaseTranform</text></g></g><g transform="translate(-270,-54) scale(1,1)"><rect fill="#C0C0C0" stroke="none" x="655" y="391" width="115.208984375" height="44" opacity="0.2"/></g><g transform="translate(-270,-54) scale(1,1)"><rect fill="#ffffff" stroke="none" x="648" y="384" width="115.208984375" height="44"/></g><g transform="translate(-270,-54) scale(1,1)"><path fill="none" stroke="#000000" d="M 648 384 L 763.208984375 384 L 763.208984375 428 L 648 428 L 648 384 Z Z" stroke-miterlimit="10"/></g><g transform="translate(-270,-54) scale(1,1)"><path fill="none" stroke="#000000" d="M 648 409 L 763.208984375 409" stroke-miterlimit="10"/></g><g transform="translate(-270,-54) scale(1,1)"><path fill="none" stroke="#000000" d="M 648 419 L 763.208984375 419" stroke-miterlimit="10"/></g><g transform="translate(-270,-54) scale(1,1)"><g><path fill="none" stroke="none"/><text fill="#000000" stroke="none" font-family="Arial" font-size="13px" font-style="normal" font-weight="bold" text-decoration="none" x="656.8291015625" y="403.5">tensor_converter</text></g></g><g transform="translate(-270,-54) scale(1,1)"><rect fill="#C0C0C0" stroke="none" x="775" y="415" width="123.86083984375" height="44" opacity="0.2"/></g><g transform="translate(-270,-54) scale(1,1)"><rect fill="#ffffff" stroke="none" x="768" y="408" width="123.86083984375" height="44"/></g><g transform="translate(-270,-54) scale(1,1)"><path fill="none" stroke="#000000" d="M 768 408 L 891.86083984375 408 L 891.86083984375 452 L 768 452 L 768 408 Z Z" stroke-miterlimit="10"/></g><g transform="translate(-270,-54) scale(1,1)"><path fill="none" stroke="#000000" d="M 768 433 L 891.86083984375 433" stroke-miterlimit="10"/></g><g transform="translate(-270,-54) scale(1,1)"><path fill="none" stroke="#000000" d="M 768 443 L 891.86083984375 443" stroke-miterlimit="10"/></g><g transform="translate(-270,-54) scale(1,1)"><g><path fill="none" stroke="none"/><text fill="#000000" stroke="none" font-family="Arial" font-size="13px" font-style="normal" font-weight="bold" text-decoration="none" x="776.81005859375" y="427.5">tensor_aggregator</text></g></g><g transform="translate(-270,-54) scale(1,1)"><rect fill="#C0C0C0" stroke="none" x="903" y="431" width="82.68359375" height="44" opacity="0.2"/></g><g transform="translate(-270,-54) scale(1,1)"><rect fill="#ffffff" stroke="none" x="896" y="424" width="82.68359375" height="44"/></g><g transform="translate(-270,-54) scale(1,1)"><path fill="none" stroke="#000000" d="M 896 424 L 978.68359375 424 L 978.68359375 468 L 896 468 L 896 424 Z Z" stroke-miterlimit="10"/></g><g transform="translate(-270,-54) scale(1,1)"><path fill="none" stroke="#000000" d="M 896 449 L 978.68359375 449" stroke-miterlimit="10"/></g><g transform="translate(-270,-54) scale(1,1)"><path fill="none" stroke="#000000" d="M 896 459 L 978.68359375 459" stroke-miterlimit="10"/></g><g transform="translate(-270,-54) scale(1,1)"><g><path fill="none" stroke="none"/><text fill="#000000" stroke="none" font-family="Arial" font-size="13px" font-style="normal" font-weight="bold" text-decoration="none" x="904.102294921875" y="443.5">tensor_split</text></g></g><g transform="translate(-270,-54) scale(1,1)"><rect fill="#C0C0C0" stroke="none" x="655" y="463" width="94.97900390625" height="44" opacity="0.2"/></g><g transform="translate(-270,-54) scale(1,1)"><rect fill="#ffffff" stroke="none" x="648" y="456" width="94.97900390625" height="44"/></g><g transform="translate(-270,-54) scale(1,1)"><path fill="none" stroke="#000000" d="M 648 456 L 742.97900390625 456 L 742.97900390625 500 L 648 500 L 648 456 Z Z" stroke-miterlimit="10"/></g><g transform="translate(-270,-54) scale(1,1)"><path fill="none" stroke="#000000" d="M 648 481 L 742.97900390625 481" stroke-miterlimit="10"/></g><g transform="translate(-270,-54) scale(1,1)"><path fill="none" stroke="#000000" d="M 648 491 L 742.97900390625 491" stroke-miterlimit="10"/></g><g transform="translate(-270,-54) scale(1,1)"><g><path fill="none" stroke="none"/><text fill="#000000" stroke="none" font-family="Arial" font-size="13px" font-style="normal" font-weight="bold" text-decoration="none" x="655.385009765625" y="475.5">tensor_merge</text></g></g><g transform="translate(-270,-54) scale(1,1)"><rect fill="#C0C0C0" stroke="none" x="759" y="479" width="82.68994140625" height="44" opacity="0.2"/></g><g transform="translate(-270,-54) scale(1,1)"><rect fill="#ffffff" stroke="none" x="752" y="472" width="82.68994140625" height="44"/></g><g transform="translate(-270,-54) scale(1,1)"><path fill="none" stroke="#000000" d="M 752 472 L 834.68994140625 472 L 834.68994140625 516 L 752 516 L 752 472 Z Z" stroke-miterlimit="10"/></g><g transform="translate(-270,-54) scale(1,1)"><path fill="none" stroke="#000000" d="M 752 497 L 834.68994140625 497" stroke-miterlimit="10"/></g><g transform="translate(-270,-54) scale(1,1)"><path fill="none" stroke="#000000" d="M 752 507 L 834.68994140625 507" stroke-miterlimit="10"/></g><g transform="translate(-270,-54) scale(1,1)"><g><path fill="none" stroke="none"/><text fill="#000000" stroke="none" font-family="Arial" font-size="13px" font-style="normal" font-weight="bold" text-decoration="none" x="759.385009765625" y="491.5">tensor_mux</text></g></g><g transform="translate(-270,-54) scale(1,1)"><rect fill="#C0C0C0" stroke="none" x="847" y="495" width="97.86083984375" height="44" opacity="0.2"/></g><g transform="translate(-270,-54) scale(1,1)"><rect fill="#ffffff" stroke="none" x="840" y="488" width="97.86083984375" height="44"/></g><g transform="translate(-270,-54) scale(1,1)"><path fill="none" stroke="#000000" d="M 840 488 L 937.86083984375 488 L 937.86083984375 532 L 840 532 L 840 488 Z Z" stroke-miterlimit="10"/></g><g transform="translate(-270,-54) scale(1,1)"><path fill="none" stroke="#000000" d="M 840 513 L 937.86083984375 513" stroke-miterlimit="10"/></g><g transform="translate(-270,-54) scale(1,1)"><path fill="none" stroke="#000000" d="M 840 523 L 937.86083984375 523" stroke-miterlimit="10"/></g><g transform="translate(-270,-54) scale(1,1)"><g><path fill="none" stroke="none"/><text fill="#000000" stroke="none" font-family="Arial" font-size="13px" font-style="normal" font-weight="bold" text-decoration="none" x="847.740478515625" y="507.5">tensor_demux</text></g></g><g transform="translate(-270,-54) scale(1,1)"><path fill="none" stroke="#000000" d="M 648 424 L 505 424" stroke-miterlimit="10"/></g><g transform="translate(-270,-54) scale(1,1)"><path fill="#FFFFFF" stroke="none" d="M 525.3253497152483 415.580964487968 L 505 424 L 525.3253497152483 432.419035512032"/></g><g transform="translate(-270,-54) scale(1,1)"><path fill="none" stroke="#000000" d="M 525.3253497152483 415.580964487968 L 505 424 L 525.3253497152483 432.419035512032 L 525.3253497152483 415.580964487968" stroke-miterlimit="10"/></g><g transform="translate(-270,-54) scale(1,1)"><path fill="none" stroke="#000000" d="M 768 432 L 505 432" stroke-miterlimit="10"/></g><g transform="translate(-270,-54) scale(1,1)"><path fill="#FFFFFF" stroke="none" d="M 525.3253497152483 423.580964487968 L 505 432 L 525.3253497152483 440.419035512032"/></g><g transform="translate(-270,-54) scale(1,1)"><path fill="none" stroke="#000000" d="M 525.3253497152483 423.580964487968 L 505 432 L 525.3253497152483 440.419035512032 L 525.3253497152483 423.580964487968" stroke-miterlimit="10"/></g><g transform="translate(-270,-54) scale(1,1)"><path fill="none" stroke="#000000" d="M 896 456 L 752 456 L 752 440 L 505 440" stroke-miterlimit="10"/></g><g transform="translate(-270,-54) scale(1,1)"><path fill="#FFFFFF" stroke="none" d="M 525.3253497152483 431.580964487968 L 505 440 L 525.3253497152483 448.419035512032"/></g><g transform="translate(-270,-54) scale(1,1)"><path fill="none" stroke="#000000" d="M 525.3253497152483 431.580964487968 L 505 440 L 525.3253497152483 448.419035512032 L 525.3253497152483 431.580964487968" stroke-miterlimit="10"/></g><g transform="translate(-270,-54) scale(1,1)"><path fill="none" stroke="#000000" d="M 648 480 L 496 480 L 496 452" stroke-miterlimit="10"/></g><g transform="translate(-270,-54) scale(1,1)"><path fill="#FFFFFF" stroke="none" d="M 504.419035512032 472.3253497152483 L 496 452 L 487.580964487968 472.3253497152483"/></g><g transform="translate(-270,-54) scale(1,1)"><path fill="none" stroke="#000000" d="M 504.419035512032 472.3253497152483 L 496 452 L 487.580964487968 472.3253497152483 L 504.419035512032 472.3253497152483" stroke-miterlimit="10"/></g><g transform="translate(-270,-54) scale(1,1)"><path fill="none" stroke="#000000" d="M 752 512 L 640 512 L 640 488 L 496 488 L 496 452" stroke-miterlimit="10"/></g><g transform="translate(-270,-54) scale(1,1)"><path fill="#FFFFFF" stroke="none" d="M 504.419035512032 472.3253497152483 L 496 452 L 487.580964487968 472.3253497152483"/></g><g transform="translate(-270,-54) scale(1,1)"><path fill="none" stroke="#000000" d="M 504.419035512032 472.3253497152483 L 496 452 L 487.580964487968 472.3253497152483 L 504.419035512032 472.3253497152483" stroke-miterlimit="10"/></g><g transform="translate(-270,-54) scale(1,1)"><path fill="none" stroke="#000000" d="M 840 520 L 632 520 L 632 496 L 496 496 L 496 452" stroke-miterlimit="10"/></g><g transform="translate(-270,-54) scale(1,1)"><path fill="#FFFFFF" stroke="none" d="M 504.419035512032 472.3253497152483 L 496 452 L 487.580964487968 472.3253497152483"/></g><g transform="translate(-270,-54) scale(1,1)"><path fill="none" stroke="#000000" d="M 504.419035512032 472.3253497152483 L 496 452 L 487.580964487968 472.3253497152483 L 504.419035512032 472.3253497152483" stroke-miterlimit="10"/></g><g transform="translate(-270,-54) scale(1,1)"><path fill="none" stroke="#000000" d="M 432 536 L 432 452" stroke-miterlimit="10"/></g><g transform="translate(-270,-54) scale(1,1)"><path fill="#FFFFFF" stroke="none" d="M 440.419035512032 472.3253497152483 L 432 452 L 423.580964487968 472.3253497152483"/></g><g transform="translate(-270,-54) scale(1,1)"><path fill="none" stroke="#000000" d="M 440.419035512032 472.3253497152483 L 432 452 L 423.580964487968 472.3253497152483 L 440.419035512032 472.3253497152483" stroke-miterlimit="10"/></g><g transform="translate(-270,-54) scale(1,1)"><path fill="none" stroke="#000000" d="M 424 688 L 392 688 L 392 448 L 424 448" stroke-miterlimit="10"/></g><g transform="translate(-270,-54) scale(1,1)"><path fill="#FFFFFF" stroke="none" d="M 403.6746502847517 456.419035512032 L 424 448 L 403.6746502847517 439.580964487968"/></g><g transform="translate(-270,-54) scale(1,1)"><path fill="none" stroke="#000000" d="M 403.6746502847517 456.419035512032 L 424 448 L 403.6746502847517 439.580964487968 L 403.6746502847517 456.419035512032" stroke-miterlimit="10"/></g><g transform="translate(-270,-54) scale(1,1)"><path fill="none" stroke="#000000" d="M 384 800 L 384 432 L 424 432" stroke-miterlimit="10"/></g><g transform="translate(-270,-54) scale(1,1)"><path fill="#FFFFFF" stroke="none" d="M 403.6746502847517 440.419035512032 L 424 432 L 403.6746502847517 423.580964487968"/></g><g transform="translate(-270,-54) scale(1,1)"><path fill="none" stroke="#000000" d="M 403.6746502847517 440.419035512032 L 424 432 L 403.6746502847517 423.580964487968 L 403.6746502847517 440.419035512032" stroke-miterlimit="10"/></g><g transform="translate(-270,-54) scale(1,1)"><rect fill="#C0C0C0" stroke="none" x="583" y="543" width="109.4326171875" height="44" opacity="0.2"/></g><g transform="translate(-270,-54) scale(1,1)"><rect fill="#ffffff" stroke="none" x="576" y="536" width="109.4326171875" height="44"/></g><g transform="translate(-270,-54) scale(1,1)"><path fill="none" stroke="#000000" d="M 576 536 L 685.4326171875 536 L 685.4326171875 580 L 576 580 L 576 536 Z Z" stroke-miterlimit="10"/></g><g transform="translate(-270,-54) scale(1,1)"><path fill="none" stroke="#000000" d="M 576 561 L 685.4326171875 561" stroke-miterlimit="10"/></g><g transform="translate(-270,-54) scale(1,1)"><path fill="none" stroke="#000000" d="M 576 571 L 685.4326171875 571" stroke-miterlimit="10"/></g><g transform="translate(-270,-54) scale(1,1)"><g><path fill="none" stroke="none"/><text fill="#000000" stroke="none" font-family="Arial" font-size="13px" font-style="normal" font-weight="bold" text-decoration="none" x="584.832275390625" y="555.5">tensor_ros_sink</text></g></g><g transform="translate(-270,-54) scale(1,1)"><rect fill="#C0C0C0" stroke="none" x="703" y="559" width="81.97265625" height="44" opacity="0.2"/></g><g transform="translate(-270,-54) scale(1,1)"><rect fill="#ffffff" stroke="none" x="696" y="552" width="81.97265625" height="44"/></g><g transform="translate(-270,-54) scale(1,1)"><path fill="none" stroke="#000000" d="M 696 552 L 777.97265625 552 L 777.97265625 596 L 696 596 L 696 552 Z Z" stroke-miterlimit="10"/></g><g transform="translate(-270,-54) scale(1,1)"><path fill="none" stroke="#000000" d="M 696 577 L 777.97265625 577" stroke-miterlimit="10"/></g><g transform="translate(-270,-54) scale(1,1)"><path fill="none" stroke="#000000" d="M 696 587 L 777.97265625 587" stroke-miterlimit="10"/></g><g transform="translate(-270,-54) scale(1,1)"><g><path fill="none" stroke="none"/><text fill="#000000" stroke="none" font-family="Arial" font-size="13px" font-style="normal" font-weight="bold" text-decoration="none" x="703.746826171875" y="571.5">tensor_sink</text></g></g><g transform="translate(-270,-54) scale(1,1)"><rect fill="#C0C0C0" stroke="none" x="799" y="583" width="110.1435546875" height="44" opacity="0.2"/></g><g transform="translate(-270,-54) scale(1,1)"><rect fill="#ffffff" stroke="none" x="792" y="576" width="110.1435546875" height="44"/></g><g transform="translate(-270,-54) scale(1,1)"><path fill="none" stroke="#000000" d="M 792 576 L 902.1435546875 576 L 902.1435546875 620 L 792 620 L 792 576 Z Z" stroke-miterlimit="10"/></g><g transform="translate(-270,-54) scale(1,1)"><path fill="none" stroke="#000000" d="M 792 601 L 902.1435546875 601" stroke-miterlimit="10"/></g><g transform="translate(-270,-54) scale(1,1)"><path fill="none" stroke="#000000" d="M 792 611 L 902.1435546875 611" stroke-miterlimit="10"/></g><g transform="translate(-270,-54) scale(1,1)"><g><path fill="none" stroke="none"/><text fill="#000000" stroke="none" font-family="Arial" font-size="13px" font-style="normal" font-weight="bold" text-decoration="none" x="800.82275390625" y="595.5">tensor_reposink</text></g></g><g transform="translate(-270,-54) scale(1,1)"><path fill="none" stroke="#000000" d="M 576 558 L 513 558" stroke-miterlimit="10"/></g><g transform="translate(-270,-54) scale(1,1)"><path fill="#FFFFFF" stroke="none" d="M 533.3253497152483 549.580964487968 L 513 558 L 533.3253497152483 566.419035512032"/></g><g transform="translate(-270,-54) scale(1,1)"><path fill="none" stroke="#000000" d="M 533.3253497152483 549.580964487968 L 513 558 L 533.3253497152483 566.419035512032 L 533.3253497152483 549.580964487968" stroke-miterlimit="10"/></g><g transform="translate(-270,-54) scale(1,1)"><path fill="none" stroke="#000000" d="M 696 592 L 540 592 L 540 576 L 513 576" stroke-miterlimit="10"/></g><g transform="translate(-270,-54) scale(1,1)"><path fill="#FFFFFF" stroke="none" d="M 533.3253497152483 567.580964487968 L 513 576 L 533.3253497152483 584.419035512032"/></g><g transform="translate(-270,-54) scale(1,1)"><path fill="none" stroke="#000000" d="M 533.3253497152483 567.580964487968 L 513 576 L 533.3253497152483 584.419035512032 L 533.3253497152483 567.580964487968" stroke-miterlimit="10"/></g><g transform="translate(-270,-54) scale(1,1)"><path fill="none" stroke="#000000" d="M 792 608 L 468 608 L 468 580" stroke-miterlimit="10"/></g><g transform="translate(-270,-54) scale(1,1)"><path fill="#FFFFFF" stroke="none" d="M 476.419035512032 600.3253497152483 L 468 580 L 459.580964487968 600.3253497152483"/></g><g transform="translate(-270,-54) scale(1,1)"><path fill="none" stroke="#000000" d="M 476.419035512032 600.3253497152483 L 468 580 L 459.580964487968 600.3253497152483 L 476.419035512032 600.3253497152483" stroke-miterlimit="10"/></g><g transform="translate(-270,-54) scale(1,1)"><rect fill="#C0C0C0" stroke="none" x="559" y="639" width="102.93896484375" height="44" opacity="0.2"/></g><g transform="translate(-270,-54) scale(1,1)"><rect fill="#ffffff" stroke="none" x="552" y="632" width="102.93896484375" height="44"/></g><g transform="translate(-270,-54) scale(1,1)"><path fill="none" stroke="#000000" d="M 552 632 L 654.93896484375 632 L 654.93896484375 676 L 552 676 L 552 632 Z Z" stroke-miterlimit="10"/></g><g transform="translate(-270,-54) scale(1,1)"><path fill="none" stroke="#000000" d="M 552 657 L 654.93896484375 657" stroke-miterlimit="10"/></g><g transform="translate(-270,-54) scale(1,1)"><path fill="none" stroke="#000000" d="M 552 667 L 654.93896484375 667" stroke-miterlimit="10"/></g><g transform="translate(-270,-54) scale(1,1)"><g><path fill="none" stroke="none"/><text fill="#000000" stroke="none" font-family="Arial" font-size="13px" font-style="normal" font-weight="bold" text-decoration="none" x="560.47998046875" y="651.5">tensor_ros_src</text></g></g><g transform="translate(-270,-54) scale(1,1)"><rect fill="#C0C0C0" stroke="none" x="559" y="727" width="83.41357421875" height="44" opacity="0.2"/></g><g transform="translate(-270,-54) scale(1,1)"><rect fill="#ebffd8" stroke="none" x="552" y="720" width="83.41357421875" height="44"/></g><g transform="translate(-270,-54) scale(1,1)"><path fill="none" stroke="#000000" d="M 552 720 L 635.41357421875 720 L 635.41357421875 764 L 552 764 L 552 720 Z Z" stroke-miterlimit="10"/></g><g transform="translate(-270,-54) scale(1,1)"><path fill="none" stroke="#000000" d="M 552 745 L 635.41357421875 745" stroke-miterlimit="10"/></g><g transform="translate(-270,-54) scale(1,1)"><path fill="none" stroke="#000000" d="M 552 755 L 635.41357421875 755" stroke-miterlimit="10"/></g><g transform="translate(-270,-54) scale(1,1)"><g><path fill="none" stroke="none"/><text fill="#000000" stroke="none" font-family="Arial" font-size="13px" font-style="normal" font-weight="bold" text-decoration="none" x="559.029541015625" y="739.5">GstPushSrc</text></g></g><g transform="translate(-270,-54) scale(1,1)"><path fill="none" stroke="#000000" d="M 552 736 L 448 736 L 448 708" stroke-miterlimit="10"/></g><g transform="translate(-270,-54) scale(1,1)"><path fill="#FFFFFF" stroke="none" d="M 456.419035512032 728.3253497152483 L 448 708 L 439.580964487968 728.3253497152483"/></g><g transform="translate(-270,-54) scale(1,1)"><path fill="none" stroke="#000000" d="M 456.419035512032 728.3253497152483 L 448 708 L 439.580964487968 728.3253497152483 L 456.419035512032 728.3253497152483" stroke-miterlimit="10"/></g><g transform="translate(-270,-54) scale(1,1)"><path fill="none" stroke="#000000" d="M 551 666 L 511 676" stroke-miterlimit="10"/></g><g transform="translate(-270,-54) scale(1,1)"><path fill="#FFFFFF" stroke="none" d="M 528.6765695489654 662.9027144422752 L 511 676 L 532.760401629193 679.2380427631853"/></g><g transform="translate(-270,-54) scale(1,1)"><path fill="none" stroke="#000000" d="M 528.6765695489654 662.9027144422752 L 511 676 L 532.760401629193 679.2380427631853 L 528.6765695489654 662.9027144422752" stroke-miterlimit="10"/></g><g transform="translate(-270,-54) scale(1,1)"><rect fill="#C0C0C0" stroke="none" x="727" y="727" width="103.64990234375" height="44" opacity="0.2"/></g><g transform="translate(-270,-54) scale(1,1)"><rect fill="#ffffff" stroke="none" x="720" y="720" width="103.64990234375" height="44"/></g><g transform="translate(-270,-54) scale(1,1)"><path fill="none" stroke="#000000" d="M 720 720 L 823.64990234375 720 L 823.64990234375 764 L 720 764 L 720 720 Z Z" stroke-miterlimit="10"/></g><g transform="translate(-270,-54) scale(1,1)"><path fill="none" stroke="#000000" d="M 720 745 L 823.64990234375 745" stroke-miterlimit="10"/></g><g transform="translate(-270,-54) scale(1,1)"><path fill="none" stroke="#000000" d="M 720 755 L 823.64990234375 755" stroke-miterlimit="10"/></g><g transform="translate(-270,-54) scale(1,1)"><g><path fill="none" stroke="none"/><text fill="#000000" stroke="none" font-family="Arial" font-size="13px" font-style="normal" font-weight="bold" text-decoration="none" x="728.470458984375" y="739.5">tensor_reposrc</text></g></g><g transform="translate(-270,-54) scale(1,1)"><path fill="none" stroke="#000000" d="M 719 742 L 636 742" stroke-miterlimit="10"/></g><g transform="translate(-270,-54) scale(1,1)"><path fill="#FFFFFF" stroke="none" d="M 656.3253497152483 733.580964487968 L 636 742 L 656.3253497152483 750.419035512032"/></g><g transform="translate(-270,-54) scale(1,1)"><path fill="none" stroke="#000000" d="M 656.3253497152483 733.580964487968 L 636 742 L 656.3253497152483 750.419035512032 L 656.3253497152483 733.580964487968" stroke-miterlimit="10"/></g><g transform="translate(-270,-54) scale(1,1)"><rect fill="#C0C0C0" stroke="none" x="695" y="671" width="98.5908203125" height="44" opacity="0.2"/></g><g transform="translate(-270,-54) scale(1,1)"><rect fill="#ffffff" stroke="none" x="688" y="664" width="98.5908203125" height="44"/></g><g transform="translate(-270,-54) scale(1,1)"><path fill="none" stroke="#000000" d="M 688 664 L 786.5908203125 664 L 786.5908203125 708 L 688 708 L 688 664 Z Z" stroke-miterlimit="10"/></g><g transform="translate(-270,-54) scale(1,1)"><path fill="none" stroke="#000000" d="M 688 689 L 786.5908203125 689" stroke-miterlimit="10"/></g><g transform="translate(-270,-54) scale(1,1)"><path fill="none" stroke="#000000" d="M 688 699 L 786.5908203125 699" stroke-miterlimit="10"/></g><g transform="translate(-270,-54) scale(1,1)"><g><path fill="none" stroke="none"/><text fill="#000000" stroke="none" font-family="Arial" font-size="13px" font-style="normal" font-weight="bold" text-decoration="none" x="696.10546875" y="683.5">tensor_source</text></g></g><g transform="translate(-270,-54) scale(1,1)"><path fill="none" stroke="#000000" d="M 687 686 L 511 686" stroke-miterlimit="10"/></g><g transform="translate(-270,-54) scale(1,1)"><path fill="#FFFFFF" stroke="none" d="M 531.3253497152483 677.580964487968 L 511 686 L 531.3253497152483 694.419035512032"/></g><g transform="translate(-270,-54) scale(1,1)"><path fill="none" stroke="#000000" d="M 531.3253497152483 677.580964487968 L 511 686 L 531.3253497152483 694.419035512032 L 531.3253497152483 677.580964487968" stroke-miterlimit="10"/></g><g transform="translate(-270,-54) scale(1,1)"><g><path fill="none" stroke="none"/><text fill="#000000" stroke="none" font-family="Arial" font-size="13px" font-style="normal" font-weight="normal" text-decoration="none" x="581.5" y="707.5">+TBD</text></g></g><g transform="translate(-270,-54) scale(1,1)"><rect fill="#C0C0C0" stroke="none" x="527" y="807" width="116.63720703125" height="44" opacity="0.2"/></g><g transform="translate(-270,-54) scale(1,1)"><rect fill="#ffffff" stroke="none" x="520" y="800" width="116.63720703125" height="44"/></g><g transform="translate(-270,-54) scale(1,1)"><path fill="none" stroke="#000000" d="M 520 800 L 636.63720703125 800 L 636.63720703125 844 L 520 844 L 520 800 Z Z" stroke-miterlimit="10"/></g><g transform="translate(-270,-54) scale(1,1)"><path fill="none" stroke="#000000" d="M 520 825 L 636.63720703125 825" stroke-miterlimit="10"/></g><g transform="translate(-270,-54) scale(1,1)"><path fill="none" stroke="#000000" d="M 520 835 L 636.63720703125 835" stroke-miterlimit="10"/></g><g transform="translate(-270,-54) scale(1,1)"><g><path fill="none" stroke="none"/><text fill="#000000" stroke="none" font-family="Arial" font-size="13px" font-style="normal" font-weight="bold" text-decoration="none" x="529.187744140625" y="819.5">tensor_transform</text></g></g><g transform="translate(-270,-54) scale(1,1)"><rect fill="#C0C0C0" stroke="none" x="695" y="823" width="84.8798828125" height="44" opacity="0.2"/></g><g transform="translate(-270,-54) scale(1,1)"><rect fill="#ffffff" stroke="none" x="688" y="816" width="84.8798828125" height="44"/></g><g transform="translate(-270,-54) scale(1,1)"><path fill="none" stroke="#000000" d="M 688 816 L 772.8798828125 816 L 772.8798828125 860 L 688 860 L 688 816 Z Z" stroke-miterlimit="10"/></g><g transform="translate(-270,-54) scale(1,1)"><path fill="none" stroke="#000000" d="M 688 841 L 772.8798828125 841" stroke-miterlimit="10"/></g><g transform="translate(-270,-54) scale(1,1)"><path fill="none" stroke="#000000" d="M 688 851 L 772.8798828125 851" stroke-miterlimit="10"/></g><g transform="translate(-270,-54) scale(1,1)"><g><path fill="none" stroke="none"/><text fill="#000000" stroke="none" font-family="Arial" font-size="13px" font-style="normal" font-weight="bold" text-decoration="none" x="695.029541015625" y="835.5">tensor_save</text></g></g><g transform="translate(-270,-54) scale(1,1)"><rect fill="#C0C0C0" stroke="none" x="439" y="918" width="84.130859375" height="44" opacity="0.2"/></g><g transform="translate(-270,-54) scale(1,1)"><rect fill="#ffffff" stroke="none" x="432" y="911" width="84.130859375" height="44"/></g><g transform="translate(-270,-54) scale(1,1)"><path fill="none" stroke="#000000" d="M 432 911 L 516.130859375 911 L 516.130859375 955 L 432 955 L 432 911 Z Z" stroke-miterlimit="10"/></g><g transform="translate(-270,-54) scale(1,1)"><path fill="none" stroke="#000000" d="M 432 936 L 516.130859375 936" stroke-miterlimit="10"/></g><g transform="translate(-270,-54) scale(1,1)"><path fill="none" stroke="#000000" d="M 432 946 L 516.130859375 946" stroke-miterlimit="10"/></g><g transform="translate(-270,-54) scale(1,1)"><g><path fill="none" stroke="none"/><text fill="#000000" stroke="none" font-family="Arial" font-size="13px" font-style="normal" font-weight="bold" text-decoration="none" x="440.10546875" y="930.5">tensor_filter</text></g></g><g transform="translate(-270,-54) scale(1,1)"><rect fill="#C0C0C0" stroke="none" x="383" y="1063" width="106.53173828125" height="44" opacity="0.2"/></g><g transform="translate(-270,-54) scale(1,1)"><rect fill="#ffffff" stroke="none" x="376" y="1056" width="106.53173828125" height="44"/></g><g transform="translate(-270,-54) scale(1,1)"><path fill="none" stroke="#000000" d="M 376 1056 L 482.53173828125 1056 L 482.53173828125 1100 L 376 1100 L 376 1056 Z Z" stroke-miterlimit="10"/></g><g transform="translate(-270,-54) scale(1,1)"><path fill="none" stroke="#000000" d="M 376 1081 L 482.53173828125 1081" stroke-miterlimit="10"/></g><g transform="translate(-270,-54) scale(1,1)"><path fill="none" stroke="#000000" d="M 376 1091 L 482.53173828125 1091" stroke-miterlimit="10"/></g><g transform="translate(-270,-54) scale(1,1)"><g><path fill="none" stroke="none"/><text fill="#000000" stroke="none" font-family="Arial" font-size="13px" font-style="normal" font-weight="bold" text-decoration="none" x="384.095947265625" y="1075.5">tensor_decoder</text></g></g><g transform="translate(-270,-54) scale(1,1)"><path fill="none" stroke="#000000" d="M 425 1055 L 383 845" stroke-miterlimit="10"/></g><g transform="translate(-270,-54) scale(1,1)"><path fill="#FFFFFF" stroke="none" d="M 395.24167256254066 863.2795364512216 L 383 845 L 378.7305855004323 866.5817538636433"/></g><g transform="translate(-270,-54) scale(1,1)"><path fill="none" stroke="#000000" d="M 395.24167256254066 863.2795364512216 L 383 845 L 378.7305855004323 866.5817538636433 L 395.24167256254066 863.2795364512216" stroke-miterlimit="10"/></g><g transform="translate(-270,-54) scale(1,1)"><path fill="none" stroke="#000000" d="M 454 910 L 399 845" stroke-miterlimit="10"/></g><g transform="translate(-270,-54) scale(1,1)"><path fill="#FFFFFF" stroke="none" d="M 418.5559781995721 855.0778825483263 L 399 845 L 405.7020257077306 865.9543038875769"/></g><g transform="translate(-270,-54) scale(1,1)"><path fill="none" stroke="#000000" d="M 418.5559781995721 855.0778825483263 L 399 845 L 405.7020257077306 865.9543038875769 L 418.5559781995721 855.0778825483263" stroke-miterlimit="10"/></g><g transform="translate(-270,-54) scale(1,1)"><path fill="none" stroke="#000000" d="M 688 848 L 504 848 L 504 832 L 438 832" stroke-miterlimit="10"/></g><g transform="translate(-270,-54) scale(1,1)"><path fill="#FFFFFF" stroke="none" d="M 458.3253497152483 823.580964487968 L 438 832 L 458.3253497152483 840.419035512032"/></g><g transform="translate(-270,-54) scale(1,1)"><path fill="none" stroke="#000000" d="M 458.3253497152483 823.580964487968 L 438 832 L 458.3253497152483 840.419035512032 L 458.3253497152483 823.580964487968" stroke-miterlimit="10"/></g><g transform="translate(-270,-54) scale(1,1)"><path fill="none" stroke="#000000" d="M 519 822 L 439 822" stroke-miterlimit="10"/></g><g transform="translate(-270,-54) scale(1,1)"><path fill="#FFFFFF" stroke="none" d="M 459.3253497152483 813.580964487968 L 439 822 L 459.3253497152483 830.419035512032"/></g><g transform="translate(-270,-54) scale(1,1)"><path fill="none" stroke="#000000" d="M 459.3253497152483 813.580964487968 L 439 822 L 459.3253497152483 830.419035512032 L 459.3253497152483 813.580964487968" stroke-miterlimit="10"/></g><g transform="translate(-270,-54) scale(1,1)"><rect fill="#C0C0C0" stroke="none" x="623" y="918" width="169.13232421875" height="44" opacity="0.2"/></g><g transform="translate(-270,-54) scale(1,1)"><rect fill="#ffffff" stroke="none" x="616" y="911" width="169.13232421875" height="44"/></g><g transform="translate(-270,-54) scale(1,1)"><path fill="none" stroke="#000000" d="M 616 911 L 785.13232421875 911 L 785.13232421875 955 L 616 955 L 616 911 Z Z" stroke-miterlimit="10"/></g><g transform="translate(-270,-54) scale(1,1)"><path fill="none" stroke="#000000" d="M 616 936 L 785.13232421875 936" stroke-miterlimit="10"/></g><g transform="translate(-270,-54) scale(1,1)"><path fill="none" stroke="#000000" d="M 616 946 L 785.13232421875 946" stroke-miterlimit="10"/></g><g transform="translate(-270,-54) scale(1,1)"><g><path fill="none" stroke="none"/><text fill="#000000" stroke="none" font-family="Arial" font-size="13px" font-style="normal" font-weight="bold" text-decoration="none" x="626.876220703125" y="930.5">GstTensorFilterProperties</text></g></g><g transform="translate(-270,-54) scale(1,1)"><path fill="none" stroke="#000000" d="M 615 933 L 517 933" stroke-miterlimit="10"/></g><g transform="translate(-270,-54) scale(1,1)"><path fill="#000000" stroke="none" d="M 527.1626748576241 928.790482243984 L 517 933 L 527.1626748576241 937.209517756016 L 539 933"/></g><g transform="translate(-270,-54) scale(1,1)"><path fill="none" stroke="#000000" d="M 527.1626748576241 928.790482243984 L 517 933 L 527.1626748576241 937.209517756016 L 539 933 L 527.1626748576241 928.790482243984" stroke-miterlimit="10"/></g><g transform="translate(-270,-54) scale(1,1)"><g><path fill="none" stroke="none"/><text fill="#000000" stroke="none" font-family="Arial" font-size="13px" font-style="normal" font-weight="normal" text-decoration="none" x="589.5" y="926.5">1</text></g></g><g transform="translate(-270,-54) scale(1,1)"><rect fill="#C0C0C0" stroke="none" x="511" y="1023" width="174.19140625" height="57" opacity="0.2"/></g><g transform="translate(-270,-54) scale(1,1)"><rect fill="#ffd8d8" stroke="none" x="504" y="1016" width="174.19140625" height="57"/></g><g transform="translate(-270,-54) scale(1,1)"><path fill="none" stroke="#000000" d="M 504 1016 L 678.19140625 1016 L 678.19140625 1073 L 504 1073 L 504 1016 Z Z" stroke-miterlimit="10"/></g><g transform="translate(-270,-54) scale(1,1)"><path fill="none" stroke="#000000" d="M 504 1054 L 678.19140625 1054" stroke-miterlimit="10"/></g><g transform="translate(-270,-54) scale(1,1)"><path fill="none" stroke="#000000" d="M 504 1064 L 678.19140625 1064" stroke-miterlimit="10"/></g><g transform="translate(-270,-54) scale(1,1)"><g><path fill="none" stroke="none"/><text fill="#000000" stroke="none" font-family="Arial" font-size="13px" font-style="normal" font-weight="normal" text-decoration="none" x="560.744384765625" y="1033.5">abstract</text></g></g><g transform="translate(-270,-54) scale(1,1)"><g><path fill="none" stroke="none"/><text fill="#000000" stroke="none" font-family="Arial" font-size="13px" font-style="normal" font-weight="bold" text-decoration="none" x="514.527099609375" y="1048.5">GstTensorFilterFramework</text></g></g><g transform="translate(-270,-54) scale(1,1)"><path fill="none" stroke="#000000" d="M 560 1015 L 498 956" stroke-miterlimit="10"/></g><g transform="translate(-270,-54) scale(1,1)"><path fill="#000000" stroke="none" d="M 508.2638888827102 959.956334794147 L 498 956 L 502.460114268724 966.0552165918953 L 513.937146168193 971.1659939342481"/></g><g transform="translate(-270,-54) scale(1,1)"><path fill="none" stroke="#000000" d="M 508.2638888827102 959.956334794147 L 498 956 L 502.460114268724 966.0552165918953 L 513.937146168193 971.1659939342481 L 508.2638888827102 959.956334794147" stroke-miterlimit="10"/></g><g transform="translate(-270,-54) scale(1,1)"><g><path fill="none" stroke="none"/><text fill="#000000" stroke="none" font-family="Arial" font-size="13px" font-style="normal" font-weight="normal" text-decoration="none" x="541.5" y="997.5">0..1</text></g></g><g transform="translate(-270,-54) scale(1,1)"><rect fill="#C0C0C0" stroke="none" x="775" y="1063" width="157.08447265625" height="44" opacity="0.2"/></g><g transform="translate(-270,-54) scale(1,1)"><rect fill="#ffffff" stroke="none" x="768" y="1056" width="157.08447265625" height="44"/></g><g transform="translate(-270,-54) scale(1,1)"><path fill="none" stroke="#000000" d="M 768 1056 L 925.08447265625 1056 L 925.08447265625 1100 L 768 1100 L 768 1056 Z Z" stroke-miterlimit="10"/></g><g transform="translate(-270,-54) scale(1,1)"><path fill="none" stroke="#000000" d="M 768 1081 L 925.08447265625 1081" stroke-miterlimit="10"/></g><g transform="translate(-270,-54) scale(1,1)"><path fill="none" stroke="#000000" d="M 768 1091 L 925.08447265625 1091" stroke-miterlimit="10"/></g><g transform="translate(-270,-54) scale(1,1)"><g><path fill="none" stroke="none"/><text fill="#000000" stroke="none" font-family="Arial" font-size="13px" font-style="normal" font-weight="bold" text-decoration="none" x="779.3427734375" y="1075.5">tensor_filter_tensorflow</text></g></g><g transform="translate(-270,-54) scale(1,1)"><rect fill="#C0C0C0" stroke="none" x="775" y="1111" width="183.09716796875" height="44" opacity="0.2"/></g><g transform="translate(-270,-54) scale(1,1)"><rect fill="#ffffff" stroke="none" x="768" y="1104" width="183.09716796875" height="44"/></g><g transform="translate(-270,-54) scale(1,1)"><path fill="none" stroke="#000000" d="M 768 1104 L 951.09716796875 1104 L 951.09716796875 1148 L 768 1148 L 768 1104 Z Z" stroke-miterlimit="10"/></g><g transform="translate(-270,-54) scale(1,1)"><path fill="none" stroke="#000000" d="M 768 1129 L 951.09716796875 1129" stroke-miterlimit="10"/></g><g transform="translate(-270,-54) scale(1,1)"><path fill="none" stroke="#000000" d="M 768 1139 L 951.09716796875 1139" stroke-miterlimit="10"/></g><g transform="translate(-270,-54) scale(1,1)"><g><path fill="none" stroke="none"/><text fill="#000000" stroke="none" font-family="Arial" font-size="13px" font-style="normal" font-weight="bold" text-decoration="none" x="780.425048828125" y="1123.5">tensor_filter_tensorflow_lite</text></g></g><g transform="translate(-270,-54) scale(1,1)"><path fill="none" stroke="#000000" d="M 767 1067 L 679 1056" stroke-miterlimit="10" stroke-dasharray="3"/></g><g transform="translate(-270,-54) scale(1,1)"><path fill="#FFFFFF" stroke="none" d="M 700.2126476941413 1050.1670266755077 L 679 1056 L 698.1241420236773 1066.8750720392197"/></g><g transform="translate(-270,-54) scale(1,1)"><path fill="none" stroke="#000000" d="M 700.2126476941413 1050.1670266755077 L 679 1056 L 698.1241420236773 1066.8750720392197 L 700.2126476941413 1050.1670266755077" stroke-miterlimit="10"/></g><g transform="translate(-270,-54) scale(1,1)"><path fill="none" stroke="#000000" d="M 784 1103 L 679 1071" stroke-miterlimit="10" stroke-dasharray="3"/></g><g transform="translate(-270,-54) scale(1,1)"><path fill="#FFFFFF" stroke="none" d="M 700.8968391089599 1068.8719875384936 L 679 1071 L 695.988135462477 1084.9786713785156"/></g><g transform="translate(-270,-54) scale(1,1)"><path fill="none" stroke="#000000" d="M 700.8968391089599 1068.8719875384936 L 679 1071 L 695.988135462477 1084.9786713785156 L 700.8968391089599 1068.8719875384936" stroke-miterlimit="10"/></g><g transform="translate(-270,-54) scale(1,1)"><rect fill="#C0C0C0" stroke="none" x="775" y="1015" width="137.5908203125" height="44" opacity="0.2"/></g><g transform="translate(-270,-54) scale(1,1)"><rect fill="#ffffff" stroke="none" x="768" y="1008" width="137.5908203125" height="44"/></g><g transform="translate(-270,-54) scale(1,1)"><path fill="none" stroke="#000000" d="M 768 1008 L 905.5908203125 1008 L 905.5908203125 1052 L 768 1052 L 768 1008 Z Z" stroke-miterlimit="10"/></g><g transform="translate(-270,-54) scale(1,1)"><path fill="none" stroke="#000000" d="M 768 1033 L 905.5908203125 1033" stroke-miterlimit="10"/></g><g transform="translate(-270,-54) scale(1,1)"><path fill="none" stroke="#000000" d="M 768 1043 L 905.5908203125 1043" stroke-miterlimit="10"/></g><g transform="translate(-270,-54) scale(1,1)"><g><path fill="none" stroke="none"/><text fill="#000000" stroke="none" font-family="Arial" font-size="13px" font-style="normal" font-weight="bold" text-decoration="none" x="778.27001953125" y="1027.5">tensor_filter_custom</text></g></g><g transform="translate(-270,-54) scale(1,1)"><path fill="none" stroke="#000000" d="M 767 1034 L 679 1039" stroke-miterlimit="10" stroke-dasharray="3"/></g><g transform="translate(-270,-54) scale(1,1)"><path fill="#FFFFFF" stroke="none" d="M 698.8150366983409 1029.4415314697699 L 679 1039 L 699.7702047343412 1046.2524889033732"/></g><g transform="translate(-270,-54) scale(1,1)"><path fill="none" stroke="#000000" d="M 698.8150366983409 1029.4415314697699 L 679 1039 L 699.7702047343412 1046.2524889033732 L 698.8150366983409 1029.4415314697699" stroke-miterlimit="10"/></g><g transform="translate(-270,-54) scale(1,1)"><path fill="none" stroke="#000000" d="M 619 1015 L 677 956" stroke-miterlimit="10"/></g><g transform="translate(-270,-54) scale(1,1)"><path fill="none" stroke="#000000" d="M 672.8774932874536 966.1982811495374 L 677 956 L 666.8736737907866 960.2962213053562" stroke-miterlimit="10"/></g><g transform="translate(-270,-54) scale(1,1)"><rect fill="#C0C0C0" stroke="none" x="823" y="911" width="137.603515625" height="57" opacity="0.2"/></g><g transform="translate(-270,-54) scale(1,1)"><rect fill="#ffd8d8" stroke="none" x="816" y="904" width="137.603515625" height="57"/></g><g transform="translate(-270,-54) scale(1,1)"><path fill="none" stroke="#000000" d="M 816 904 L 953.603515625 904 L 953.603515625 961 L 816 961 L 816 904 Z Z" stroke-miterlimit="10"/></g><g transform="translate(-270,-54) scale(1,1)"><path fill="none" stroke="#000000" d="M 816 942 L 953.603515625 942" stroke-miterlimit="10"/></g><g transform="translate(-270,-54) scale(1,1)"><path fill="none" stroke="#000000" d="M 816 952 L 953.603515625 952" stroke-miterlimit="10"/></g><g transform="translate(-270,-54) scale(1,1)"><g><path fill="none" stroke="none"/><text fill="#000000" stroke="none" font-family="Arial" font-size="13px" font-style="normal" font-weight="normal" text-decoration="none" x="854.450439453125" y="921.5">abstract</text></g></g><g transform="translate(-270,-54) scale(1,1)"><g><path fill="none" stroke="none"/><text fill="#000000" stroke="none" font-family="Arial" font-size="13px" font-style="normal" font-weight="bold" text-decoration="none" x="824.1181640625" y="936.5">NNStreamer_custom</text></g></g><g transform="translate(-270,-54) scale(1,1)"><path fill="none" stroke="#000000" d="M 869 962 L 847 1007" stroke-miterlimit="10"/></g><g transform="translate(-270,-54) scale(1,1)"><path fill="#000000" stroke="none" d="M 847.681784846724 996.0211489935068 L 847 1007 L 855.2453146847569 999.7188746921006 L 856.6626229041087 987.2355440597776"/></g><g transform="translate(-270,-54) scale(1,1)"><path fill="none" stroke="#000000" d="M 847.681784846724 996.0211489935068 L 847 1007 L 855.2453146847569 999.7188746921006 L 856.6626229041087 987.2355440597776 L 847.681784846724 996.0211489935068" stroke-miterlimit="10"/></g><g transform="translate(-270,-54) scale(1,1)"><g><path fill="none" stroke="none"/><text fill="#000000" stroke="none" font-family="Arial" font-size="13px" font-style="normal" font-weight="normal" text-decoration="none" x="837.5" y="981.5">0..1</text></g></g><g transform="translate(-270,-54) scale(1,1)"><rect fill="#C0C0C0" stroke="none" x="823" y="823" width="154.92626953125" height="44" opacity="0.2"/></g><g transform="translate(-270,-54) scale(1,1)"><rect fill="#ffffff" stroke="none" x="816" y="816" width="154.92626953125" height="44"/></g><g transform="translate(-270,-54) scale(1,1)"><path fill="none" stroke="#000000" d="M 816 816 L 970.92626953125 816 L 970.92626953125 860 L 816 860 L 816 816 Z Z" stroke-miterlimit="10"/></g><g transform="translate(-270,-54) scale(1,1)"><path fill="none" stroke="#000000" d="M 816 841 L 970.92626953125 841" stroke-miterlimit="10"/></g><g transform="translate(-270,-54) scale(1,1)"><path fill="none" stroke="#000000" d="M 816 851 L 970.92626953125 851" stroke-miterlimit="10"/></g><g transform="translate(-270,-54) scale(1,1)"><g><path fill="none" stroke="none"/><text fill="#000000" stroke="none" font-family="Arial" font-size="13px" font-style="normal" font-weight="bold" text-decoration="none" x="824.476806640625" y="835.5">User Custom Filter XXX</text></g></g><g transform="translate(-270,-54) scale(1,1)"><path fill="none" stroke="#000000" d="M 891 861 L 887 903" stroke-miterlimit="10" stroke-dasharray="3"/></g><g transform="translate(-270,-54) scale(1,1)"><path fill="#FFFFFF" stroke="none" d="M 880.5459162280139 881.9680052618829 L 887 903 L 897.308139699685 883.5644074972802"/></g><g transform="translate(-270,-54) scale(1,1)"><path fill="none" stroke="#000000" d="M 880.5459162280139 881.9680052618829 L 887 903 L 897.308139699685 883.5644074972802 L 880.5459162280139 881.9680052618829" stroke-miterlimit="10"/></g><g transform="translate(-270,-54) scale(1,1)"><rect fill="#C0C0C0" stroke="none" x="399" y="1159" width="96.17236328125" height="57" opacity="0.2"/></g><g transform="translate(-270,-54) scale(1,1)"><rect fill="#ffd8d8" stroke="none" x="392" y="1152" width="96.17236328125" height="57"/></g><g transform="translate(-270,-54) scale(1,1)"><path fill="none" stroke="#000000" d="M 392 1152 L 488.17236328125 1152 L 488.17236328125 1209 L 392 1209 L 392 1152 Z Z" stroke-miterlimit="10"/></g><g transform="translate(-270,-54) scale(1,1)"><path fill="none" stroke="#000000" d="M 392 1190 L 488.17236328125 1190" stroke-miterlimit="10"/></g><g transform="translate(-270,-54) scale(1,1)"><path fill="none" stroke="#000000" d="M 392 1200 L 488.17236328125 1200" stroke-miterlimit="10"/></g><g transform="translate(-270,-54) scale(1,1)"><g><path fill="none" stroke="none"/><text fill="#000000" stroke="none" font-family="Arial" font-size="13px" font-style="normal" font-weight="normal" text-decoration="none" x="409.73486328125" y="1169.5">abstract</text></g></g><g transform="translate(-270,-54) scale(1,1)"><g><path fill="none" stroke="none"/><text fill="#000000" stroke="none" font-family="Arial" font-size="13px" font-style="normal" font-weight="bold" text-decoration="none" x="398.902587890625" y="1184.5">TensorDecDef</text></g></g><g transform="translate(-270,-54) scale(1,1)"><path fill="none" stroke="#000000" d="M 437 1151 L 431 1101" stroke-miterlimit="10"/></g><g transform="translate(-270,-54) scale(1,1)"><path fill="#000000" stroke="none" d="M 436.39036681913274 1110.5887405614708 L 431 1101 L 428.0313014568373 1111.5918284049462 L 433.62119485360546 1122.8432904467122"/></g><g transform="translate(-270,-54) scale(1,1)"><path fill="none" stroke="#000000" d="M 436.39036681913274 1110.5887405614708 L 431 1101 L 428.0313014568373 1111.5918284049462 L 433.62119485360546 1122.8432904467122 L 436.39036681913274 1110.5887405614708" stroke-miterlimit="10"/></g><g transform="translate(-270,-54) scale(1,1)"><g><path fill="none" stroke="none"/><text fill="#000000" stroke="none" font-family="Arial" font-size="13px" font-style="normal" font-weight="normal" text-decoration="none" x="435.5" y="1134.5">0..1</text></g></g><g transform="translate(-270,-54) scale(1,1)"><rect fill="#C0C0C0" stroke="none" x="551" y="1111" width="190.34619140625" height="44" opacity="0.2"/></g><g transform="translate(-270,-54) scale(1,1)"><rect fill="#ffffff" stroke="none" x="544" y="1104" width="190.34619140625" height="44"/></g><g transform="translate(-270,-54) scale(1,1)"><path fill="none" stroke="#000000" d="M 544 1104 L 734.34619140625 1104 L 734.34619140625 1148 L 544 1148 L 544 1104 Z Z" stroke-miterlimit="10"/></g><g transform="translate(-270,-54) scale(1,1)"><path fill="none" stroke="#000000" d="M 544 1129 L 734.34619140625 1129" stroke-miterlimit="10"/></g><g transform="translate(-270,-54) scale(1,1)"><path fill="none" stroke="#000000" d="M 544 1139 L 734.34619140625 1139" stroke-miterlimit="10"/></g><g transform="translate(-270,-54) scale(1,1)"><g><path fill="none" stroke="none"/><text fill="#000000" stroke="none" font-family="Arial" font-size="13px" font-style="normal" font-weight="bold" text-decoration="none" x="555.339599609375" y="1123.5">tensor_decoder_direct_video</text></g></g><g transform="translate(-270,-54) scale(1,1)"><rect fill="#C0C0C0" stroke="none" x="551" y="1159" width="207.681640625" height="44" opacity="0.2"/></g><g transform="translate(-270,-54) scale(1,1)"><rect fill="#ffffff" stroke="none" x="544" y="1152" width="207.681640625" height="44"/></g><g transform="translate(-270,-54) scale(1,1)"><path fill="none" stroke="#000000" d="M 544 1152 L 751.681640625 1152 L 751.681640625 1196 L 544 1196 L 544 1152 Z Z" stroke-miterlimit="10"/></g><g transform="translate(-270,-54) scale(1,1)"><path fill="none" stroke="#000000" d="M 544 1177 L 751.681640625 1177" stroke-miterlimit="10"/></g><g transform="translate(-270,-54) scale(1,1)"><path fill="none" stroke="#000000" d="M 544 1187 L 751.681640625 1187" stroke-miterlimit="10"/></g><g transform="translate(-270,-54) scale(1,1)"><g><path fill="none" stroke="none"/><text fill="#000000" stroke="none" font-family="Arial" font-size="13px" font-style="normal" font-weight="bold" text-decoration="none" x="555.330078125" y="1171.5">tensor_decoder_image_labeling</text></g></g><g transform="translate(-270,-54) scale(1,1)"><rect fill="#C0C0C0" stroke="none" x="551" y="1207" width="217.76171875" height="44" opacity="0.2"/></g><g transform="translate(-270,-54) scale(1,1)"><rect fill="#ffffff" stroke="none" x="544" y="1200" width="217.76171875" height="44"/></g><g transform="translate(-270,-54) scale(1,1)"><path fill="none" stroke="#000000" d="M 544 1200 L 761.76171875 1200 L 761.76171875 1244 L 544 1244 L 544 1200 Z Z" stroke-miterlimit="10"/></g><g transform="translate(-270,-54) scale(1,1)"><path fill="none" stroke="#000000" d="M 544 1225 L 761.76171875 1225" stroke-miterlimit="10"/></g><g transform="translate(-270,-54) scale(1,1)"><path fill="none" stroke="#000000" d="M 544 1235 L 761.76171875 1235" stroke-miterlimit="10"/></g><g transform="translate(-270,-54) scale(1,1)"><g><path fill="none" stroke="none"/><text fill="#000000" stroke="none" font-family="Arial" font-size="13px" font-style="normal" font-weight="bold" text-decoration="none" x="556.386962890625" y="1219.5">tensor_decoder_bounding_boxes</text></g></g><g transform="translate(-270,-54) scale(1,1)"><path fill="none" stroke="#000000" d="M 554 1149 L 489 1167" stroke-miterlimit="10" stroke-dasharray="3"/></g><g transform="translate(-270,-54) scale(1,1)"><path fill="#FFFFFF" stroke="none" d="M 506.34128524869567 1153.461912028526 L 489 1167 L 510.8350142027723 1169.6892665849136"/></g><g transform="translate(-270,-54) scale(1,1)"><path fill="none" stroke="#000000" d="M 506.34128524869567 1153.461912028526 L 489 1167 L 510.8350142027723 1169.6892665849136 L 506.34128524869567 1153.461912028526" stroke-miterlimit="10"/></g><g transform="translate(-270,-54) scale(1,1)"><path fill="none" stroke="#000000" d="M 543 1177 L 489 1179" stroke-miterlimit="10" stroke-dasharray="3"/></g><g transform="translate(-270,-54) scale(1,1)"><path fill="#FFFFFF" stroke="none" d="M 508.9998209877528 1169.834457983412 L 489 1179 L 509.6230259561367 1186.6609921297775"/></g><g transform="translate(-270,-54) scale(1,1)"><path fill="none" stroke="#000000" d="M 508.9998209877528 1169.834457983412 L 489 1179 L 509.6230259561367 1186.6609921297775 L 508.9998209877528 1169.834457983412" stroke-miterlimit="10"/></g><g transform="translate(-270,-54) scale(1,1)"><path fill="none" stroke="#000000" d="M 543 1200 L 489 1190" stroke-miterlimit="10" stroke-dasharray="3"/></g><g transform="translate(-270,-54) scale(1,1)"><path fill="#FFFFFF" stroke="none" d="M 510.5185665678542 1185.42274177429 L 489 1190 L 507.4525346721852 1201.9793140109025"/></g><g transform="translate(-270,-54) scale(1,1)"><path fill="none" stroke="#000000" d="M 510.5185665678542 1185.42274177429 L 489 1190 L 507.4525346721852 1201.9793140109025 L 510.5185665678542 1185.42274177429" stroke-miterlimit="10"/></g><g transform="translate(-270,-54) scale(1,1)"><rect fill="#C0C0C0" stroke="none" x="519" y="71" width="76.9072265625" height="44" opacity="0.2"/></g><g transform="translate(-270,-54) scale(1,1)"><rect fill="#d8d8ff" stroke="none" x="512" y="64" width="76.9072265625" height="44"/></g><g transform="translate(-270,-54) scale(1,1)"><path fill="none" stroke="#000000" d="M 512 64 L 588.9072265625 64 L 588.9072265625 108 L 512 108 L 512 64 Z Z" stroke-miterlimit="10"/></g><g transform="translate(-270,-54) scale(1,1)"><path fill="none" stroke="#000000" d="M 512 89 L 588.9072265625 89" stroke-miterlimit="10"/></g><g transform="translate(-270,-54) scale(1,1)"><path fill="none" stroke="#000000" d="M 512 99 L 588.9072265625 99" stroke-miterlimit="10"/></g><g transform="translate(-270,-54) scale(1,1)"><g><path fill="none" stroke="none"/><text fill="#000000" stroke="none" font-family="Arial" font-size="13px" font-style="normal" font-weight="bold" text-decoration="none" x="518.66455078125" y="83.5">GLib Class</text></g></g><g transform="translate(-270,-54) scale(1,1)"><rect fill="#C0C0C0" stroke="none" x="599" y="71" width="113.78076171875" height="44" opacity="0.2"/></g><g transform="translate(-270,-54) scale(1,1)"><rect fill="#d8ffd8" stroke="none" x="592" y="64" width="113.78076171875" height="44"/></g><g transform="translate(-270,-54) scale(1,1)"><path fill="none" stroke="#000000" d="M 592 64 L 705.78076171875 64 L 705.78076171875 108 L 592 108 L 592 64 Z Z" stroke-miterlimit="10"/></g><g transform="translate(-270,-54) scale(1,1)"><path fill="none" stroke="#000000" d="M 592 89 L 705.78076171875 89" stroke-miterlimit="10"/></g><g transform="translate(-270,-54) scale(1,1)"><path fill="none" stroke="#000000" d="M 592 99 L 705.78076171875 99" stroke-miterlimit="10"/></g><g transform="translate(-270,-54) scale(1,1)"><g><path fill="none" stroke="none"/><text fill="#000000" stroke="none" font-family="Arial" font-size="13px" font-style="normal" font-weight="bold" text-decoration="none" x="599.04541015625" y="83.5">GStreamer Class</text></g></g><g transform="translate(-270,-54) scale(1,1)"><rect fill="#C0C0C0" stroke="none" x="719" y="71" width="116.65625" height="44" opacity="0.2"/></g><g transform="translate(-270,-54) scale(1,1)"><rect fill="#ffd8d8" stroke="none" x="712" y="64" width="116.65625" height="44"/></g><g transform="translate(-270,-54) scale(1,1)"><path fill="none" stroke="#000000" d="M 712 64 L 828.65625 64 L 828.65625 108 L 712 108 L 712 64 Z Z" stroke-miterlimit="10"/></g><g transform="translate(-270,-54) scale(1,1)"><path fill="none" stroke="#000000" d="M 712 89 L 828.65625 89" stroke-miterlimit="10"/></g><g transform="translate(-270,-54) scale(1,1)"><path fill="none" stroke="#000000" d="M 712 99 L 828.65625 99" stroke-miterlimit="10"/></g><g transform="translate(-270,-54) scale(1,1)"><g><path fill="none" stroke="none"/><text fill="#000000" stroke="none" font-family="Arial" font-size="13px" font-style="normal" font-weight="bold" text-decoration="none" x="718.67724609375" y="83.5">NNStreamer APIs</text></g></g><g transform="translate(-270,-54) scale(1,1)"><rect fill="#C0C0C0" stroke="none" x="319" y="991" width="51.61181640625" height="44" opacity="0.2"/></g><g transform="translate(-270,-54) scale(1,1)"><rect fill="#ebffd8" stroke="none" x="312" y="984" width="51.61181640625" height="44"/></g><g transform="translate(-270,-54) scale(1,1)"><path fill="none" stroke="#000000" d="M 312 984 L 363.61181640625 984 L 363.61181640625 1028 L 312 1028 L 312 984 Z Z" stroke-miterlimit="10"/></g><g transform="translate(-270,-54) scale(1,1)"><path fill="none" stroke="#000000" d="M 312 1009 L 363.61181640625 1009" stroke-miterlimit="10"/></g><g transform="translate(-270,-54) scale(1,1)"><path fill="none" stroke="#000000" d="M 312 1019 L 363.61181640625 1019" stroke-miterlimit="10"/></g><g transform="translate(-270,-54) scale(1,1)"><g><path fill="none" stroke="none"/><text fill="#000000" stroke="none" font-family="Arial" font-size="13px" font-style="normal" font-weight="bold" text-decoration="none" x="318.299560546875" y="1003.5">GstBin</text></g></g><g transform="translate(-270,-54) scale(1,1)"><path fill="none" stroke="#000000" d="M 312 984 L 304 984 L 304 416 L 424 416" stroke-miterlimit="10"/></g><g transform="translate(-270,-54) scale(1,1)"><path fill="#FFFFFF" stroke="none" d="M 403.6746502847517 424.419035512032 L 424 416 L 403.6746502847517 407.580964487968"/></g><g transform="translate(-270,-54) scale(1,1)"><path fill="none" stroke="#000000" d="M 403.6746502847517 424.419035512032 L 424 416 L 403.6746502847517 407.580964487968 L 403.6746502847517 424.419035512032" stroke-miterlimit="10"/></g><g transform="translate(-270,-54) scale(1,1)"><rect fill="#C0C0C0" stroke="none" x="303" y="1151" width="80.51904296875" height="44" opacity="0.2"/></g><g transform="translate(-270,-54) scale(1,1)"><rect fill="#ebffd8" stroke="none" x="296" y="1144" width="80.51904296875" height="44"/></g><g transform="translate(-270,-54) scale(1,1)"><path fill="none" stroke="#000000" d="M 296 1144 L 376.51904296875 1144 L 376.51904296875 1188 L 296 1188 L 296 1144 Z Z" stroke-miterlimit="10"/></g><g transform="translate(-270,-54) scale(1,1)"><path fill="none" stroke="#000000" d="M 296 1169 L 376.51904296875 1169" stroke-miterlimit="10"/></g><g transform="translate(-270,-54) scale(1,1)"><path fill="none" stroke="#000000" d="M 296 1179 L 376.51904296875 1179" stroke-miterlimit="10"/></g><g transform="translate(-270,-54) scale(1,1)"><g><path fill="none" stroke="none"/><text fill="#000000" stroke="none" font-family="Arial" font-size="13px" font-style="normal" font-weight="bold" text-decoration="none" x="303.02001953125" y="1163.5">GstPipeline</text></g></g><g transform="translate(-270,-54) scale(1,1)"><path fill="none" stroke="#000000" d="M 336 1143 L 337 1029" stroke-miterlimit="10"/></g><g transform="translate(-270,-54) scale(1,1)"><path fill="#FFFFFF" stroke="none" d="M 345.2404259397596 1049.3984161231047 L 337 1029 L 328.4030026957572 1049.250719427982"/></g><g transform="translate(-270,-54) scale(1,1)"><path fill="none" stroke="#000000" d="M 345.2404259397596 1049.3984161231047 L 337 1029 L 328.4030026957572 1049.250719427982 L 345.2404259397596 1049.3984161231047" stroke-miterlimit="10"/></g><g transform="translate(-270,-54) scale(1,1)"><path fill="none" stroke="#000000" d="M 432 408 L 432 392 L 280 392 L 280 1008 L 312 1008" stroke-miterlimit="10"/></g><g transform="translate(-270,-54) scale(1,1)"><path fill="#FFFFFF" stroke="none" d="M 301.83732514237585 1012.209517756016 L 312 1008 L 301.83732514237585 1003.790482243984 L 290 1008"/></g><g transform="translate(-270,-54) scale(1,1)"><path fill="none" stroke="#000000" d="M 301.83732514237585 1012.209517756016 L 312 1008 L 301.83732514237585 1003.790482243984 L 290 1008 L 301.83732514237585 1012.209517756016" stroke-miterlimit="10"/></g><g transform="translate(-270,-54) scale(1,1)"><g><path fill="none" stroke="none"/><text fill="#000000" stroke="none" font-family="Arial" font-size="13px" font-style="normal" font-weight="normal" text-decoration="none" x="279.5" y="380.5">+children-List</text></g></g><g transform="translate(-270,-54) scale(1,1)"><g><path fill="none" stroke="none"/><text fill="#000000" stroke="none" font-family="Arial" font-size="13px" font-style="normal" font-weight="normal" text-decoration="none" x="397.74365234375" y="388.5">0..*</text></g></g><g transform="translate(-270,-54) scale(1,1)"><path fill="#ffffd8" stroke="none" d="M 600 120 L 701 120 L 711 130 L 711 169 L 600 169 L 600 120"/></g><g transform="translate(-270,-54) scale(1,1)"><path fill="none" stroke="#000000" d="M 600 120 L 701 120 L 711 130 L 711 169 L 600 169 L 600 120 L 600 120" stroke-miterlimit="10"/></g><g transform="translate(-270,-54) scale(1,1)"><path fill="none" stroke="#000000" d="M 701 120 L 701 130 L 711 130 L 701 120" stroke-miterlimit="10"/></g><g transform="translate(-270,-54) scale(1,1)"><g><path fill="none" stroke="none"/><text fill="#000000" stroke="none" font-family="Arial" font-size="13px" font-style="normal" font-weight="normal" text-decoration="none" x="605" y="138">Gstreamer</text><text fill="#000000" stroke="none" font-family="Arial" font-size="13px" font-style="normal" font-weight="normal" text-decoration="none" x="605" y="151">Classes are</text><text fill="#000000" stroke="none" font-family="Arial" font-size="13px" font-style="normal" font-weight="normal" text-decoration="none" x="605" y="164">simplfied</text></g></g><g transform="translate(-270,-54) scale(1,1)"><path fill="none" stroke="#000000" d="M 652 119 L 651 109" stroke-miterlimit="10" stroke-dasharray="3"/></g><g transform="translate(-270,-54) scale(1,1)"><rect fill="#C0C0C0" stroke="none" x="815" y="647" width="133.72509765625" height="44" opacity="0.2"/></g><g transform="translate(-270,-54) scale(1,1)"><rect fill="#ffffff" stroke="none" x="808" y="640" width="133.72509765625" height="44"/></g><g transform="translate(-270,-54) scale(1,1)"><path fill="none" stroke="#000000" d="M 808 640 L 941.72509765625 640 L 941.72509765625 684 L 808 684 L 808 640 Z Z" stroke-miterlimit="10"/></g><g transform="translate(-270,-54) scale(1,1)"><path fill="none" stroke="#000000" d="M 808 665 L 941.72509765625 665" stroke-miterlimit="10"/></g><g transform="translate(-270,-54) scale(1,1)"><path fill="none" stroke="#000000" d="M 808 675 L 941.72509765625 675" stroke-miterlimit="10"/></g><g transform="translate(-270,-54) scale(1,1)"><g><path fill="none" stroke="none"/><text fill="#000000" stroke="none" font-family="Arial" font-size="13px" font-style="normal" font-weight="bold" text-decoration="none" x="815.97216796875" y="659.5">GstTensorRepoData</text></g></g><g transform="translate(-270,-54) scale(1,1)"><path fill="none" stroke="#000000" d="M 864 620 L 864 640" stroke-miterlimit="10"/></g><g transform="translate(-270,-54) scale(1,1)"><path fill="none" stroke="#000000" d="M 859.790482243984 629.8373251423759 L 864 640 L 868.209517756016 629.8373251423759" stroke-miterlimit="10"/></g><g transform="translate(-270,-54) scale(1,1)"><path fill="none" stroke="#000000" d="M 824 728 L 864 728 L 864 684" stroke-miterlimit="10"/></g><g transform="translate(-270,-54) scale(1,1)"><path fill="none" stroke="#000000" d="M 868.209517756016 694.1626748576241 L 864 684 L 859.790482243984 694.1626748576241" stroke-miterlimit="10"/></g><g transform="translate(-270,-54) scale(1,1)"><rect fill="#C0C0C0" stroke="none" x="911" y="743" width="105.5478515625" height="44" opacity="0.2"/></g><g transform="translate(-270,-54) scale(1,1)"><rect fill="#ffffff" stroke="none" x="904" y="736" width="105.5478515625" height="44"/></g><g transform="translate(-270,-54) scale(1,1)"><path fill="none" stroke="#000000" d="M 904 736 L 1009.5478515625 736 L 1009.5478515625 780 L 904 780 L 904 736 Z Z" stroke-miterlimit="10"/></g><g transform="translate(-270,-54) scale(1,1)"><path fill="none" stroke="#000000" d="M 904 761 L 1009.5478515625 761" stroke-miterlimit="10"/></g><g transform="translate(-270,-54) scale(1,1)"><path fill="none" stroke="#000000" d="M 904 771 L 1009.5478515625 771" stroke-miterlimit="10"/></g><g transform="translate(-270,-54) scale(1,1)"><g><path fill="none" stroke="none"/><text fill="#000000" stroke="none" font-family="Arial" font-size="13px" font-style="normal" font-weight="bold" text-decoration="none" x="911.613525390625" y="755.5">GstTensorRepo</text></g></g><g transform="translate(-270,-54) scale(1,1)"><path fill="none" stroke="#000000" d="M 942 656 L 976 656 L 976 736" stroke-miterlimit="10"/></g><g transform="translate(-270,-54) scale(1,1)"><path fill="#000000" stroke="none" d="M 971.790482243984 725.8373251423759 L 976 736 L 980.209517756016 725.8373251423759 L 976 714"/></g><g transform="translate(-270,-54) scale(1,1)"><path fill="none" stroke="#000000" d="M 971.790482243984 725.8373251423759 L 976 736 L 980.209517756016 725.8373251423759 L 976 714 L 971.790482243984 725.8373251423759" stroke-miterlimit="10"/></g><g transform="translate(-270,-54) scale(1,1)"><g><path fill="none" stroke="none"/><text fill="#000000" stroke="none" font-family="Arial" font-size="13px" font-style="normal" font-weight="normal" text-decoration="none" x="903.5" y="708.5">+HashTable</text></g></g><g transform="translate(-270,-54) scale(1,1)"><g><path fill="none" stroke="none"/><text fill="#000000" stroke="none" font-family="Arial" font-size="13px" font-style="normal" font-weight="normal" text-decoration="none" x="952.74365234375" y="674.5">0..*</text></g></g><g transform="translate(-270,-54) scale(1,1)"><path fill="#ffffd8" stroke="none" d="M 784 776 L 849.82080078125 776 L 859.82080078125 786 L 859.82080078125 799 L 784 799 L 784 776"/></g><g transform="translate(-270,-54) scale(1,1)"><path fill="none" stroke="#000000" d="M 784 776 L 849.82080078125 776 L 859.82080078125 786 L 859.82080078125 799 L 784 799 L 784 776 L 784 776" stroke-miterlimit="10"/></g><g transform="translate(-270,-54) scale(1,1)"><path fill="none" stroke="#000000" d="M 849.82080078125 776 L 849.82080078125 786 L 859.82080078125 786 L 849.82080078125 776" stroke-miterlimit="10"/></g><g transform="translate(-270,-54) scale(1,1)"><g><path fill="none" stroke="none"/><text fill="#000000" stroke="none" font-family="Arial" font-size="13px" font-style="normal" font-weight="normal" text-decoration="none" x="789" y="794">Singleton!</text></g></g><g transform="translate(-270,-54) scale(1,1)"><path fill="none" stroke="#000000" d="M 903 770 L 862 779" stroke-miterlimit="10" stroke-dasharray="3"/></g><g transform="translate(-270,-54) scale(1,1)"><rect fill="#C0C0C0" stroke="none" x="319" y="295" width="63.1708984375" height="44" opacity="0.2"/></g><g transform="translate(-270,-54) scale(1,1)"><rect fill="#ffffff" stroke="none" x="312" y="288" width="63.1708984375" height="44"/></g><g transform="translate(-270,-54) scale(1,1)"><path fill="none" stroke="#000000" d="M 312 288 L 375.1708984375 288 L 375.1708984375 332 L 312 332 L 312 288 Z Z" stroke-miterlimit="10"/></g><g transform="translate(-270,-54) scale(1,1)"><path fill="none" stroke="#000000" d="M 312 313 L 375.1708984375 313" stroke-miterlimit="10"/></g><g transform="translate(-270,-54) scale(1,1)"><path fill="none" stroke="#000000" d="M 312 323 L 375.1708984375 323" stroke-miterlimit="10"/></g><g transform="translate(-270,-54) scale(1,1)"><g><path fill="none" stroke="none"/><text fill="#000000" stroke="none" font-family="Arial" font-size="13px" font-style="normal" font-weight="bold" text-decoration="none" x="318.648681640625" y="307.5">confdata</text></g></g><g transform="translate(-270,-54) scale(1,1)"><path fill="#ffffd8" stroke="none" d="M 312 208 L 377.82080078125 208 L 387.82080078125 218 L 387.82080078125 246 L 312 246 L 312 208"/></g><g transform="translate(-270,-54) scale(1,1)"><path fill="none" stroke="#000000" d="M 312 208 L 377.82080078125 208 L 387.82080078125 218 L 387.82080078125 246 L 312 246 L 312 208 L 312 208" stroke-miterlimit="10"/></g><g transform="translate(-270,-54) scale(1,1)"><path fill="none" stroke="#000000" d="M 377.82080078125 208 L 377.82080078125 218 L 387.82080078125 218 L 377.82080078125 208" stroke-miterlimit="10"/></g><g transform="translate(-270,-54) scale(1,1)"><g><path fill="none" stroke="none"/><text fill="#000000" stroke="none" font-family="Arial" font-size="13px" font-style="normal" font-weight="normal" text-decoration="none" x="317" y="226">Singleton!</text></g></g><g transform="translate(-270,-54) scale(1,1)"><path fill="none" stroke="#000000" d="M 348 248 L 345 287" stroke-miterlimit="10" stroke-dasharray="3"/></g></g></svg>
